<svg id="svg" version="1.1" xmlns="http://www.w3.org/2000/svg" xmlns:xlink="http://www.w3.org/1999/xlink" width="400" height="316.751269035533" viewBox="0, 0, 400,316.751269035533"><g id="svgg"><path id="path0" d="M172.462 40.056 C 171.741 40.823,170.612 43.806,169.711 47.326 C 169.193 49.352,167.758 53.342,166.158 57.211 C 165.249 59.409,164.329 62.247,163.435 65.610 C 163.180 66.569,162.313 69.422,161.507 71.949 C 160.702 74.477,159.199 80.111,158.167 84.469 C 157.135 88.827,155.924 93.677,155.475 95.246 C 155.027 96.815,154.021 100.808,153.240 104.120 C 151.762 110.388,150.422 115.394,149.931 116.482 C 149.773 116.830,149.074 118.685,148.378 120.602 C 145.891 127.446,144.694 130.048,143.873 130.384 C 143.451 130.557,142.508 130.959,141.777 131.276 C 141.045 131.594,140.316 131.854,140.157 131.854 C 139.786 131.854,139.471 129.242,139.450 125.990 C 139.404 119.068,135.590 116.252,134.857 122.600 C 134.381 126.722,133.094 130.478,131.414 132.647 C 130.963 133.229,130.923 132.956,130.913 129.295 C 130.904 125.545,130.860 125.268,130.170 124.619 C 128.473 123.025,127.254 124.056,126.968 127.326 C 126.835 128.839,126.439 130.530,125.944 131.696 C 125.500 132.742,124.856 134.593,124.512 135.811 C 124.168 137.028,123.719 138.131,123.513 138.262 C 122.781 138.727,122.073 138.514,121.971 137.797 C 121.721 136.034,119.624 136.888,119.440 138.829 L 119.334 139.937 113.629 141.955 C 110.491 143.066,104.501 145.154,100.317 146.596 C 96.133 148.038,92.496 149.295,92.235 149.389 C 91.973 149.483,89.477 150.217,86.688 151.020 C 81.547 152.501,66.931 157.061,65.769 157.547 C 65.420 157.693,63.708 158.187,61.965 158.645 C 60.222 159.103,56.157 160.247,52.932 161.186 C 49.707 162.126,46.284 163.122,45.325 163.401 C 44.366 163.680,43.296 164.032,42.948 164.185 C 42.599 164.337,41.512 164.683,40.533 164.953 C 37.913 165.677,37.150 167.357,39.207 167.873 C 42.562 168.715,64.932 162.970,76.704 158.244 C 80.112 156.875,91.689 151.822,92.071 151.536 C 92.248 151.403,92.892 151.107,93.502 150.877 C 94.113 150.648,95.040 150.284,95.563 150.070 C 96.086 149.855,98.582 149.082,101.109 148.352 C 113.176 144.864,117.715 143.587,118.719 143.399 L 119.810 143.194 119.812 146.637 C 119.814 151.348,120.220 153.615,121.254 154.694 C 122.226 155.708,122.263 155.677,119.055 156.551 C 116.590 157.223,111.663 158.974,109.192 160.056 C 108.494 160.362,107.211 160.860,106.339 161.164 C 105.468 161.467,104.469 161.831,104.120 161.973 C 103.772 162.114,102.345 162.618,100.951 163.093 C 97.345 164.322,90.735 167.169,84.469 170.193 C 81.506 171.624,78.796 172.916,78.447 173.065 C 71.613 175.990,70.257 176.960,71.132 178.294 C 73.380 181.726,92.750 176.490,104.757 169.205 C 111.995 164.814,114.003 163.837,124.564 159.572 C 127.266 158.480,130.944 156.861,132.737 155.973 C 136.979 153.872,136.742 153.785,136.507 157.356 C 136.113 163.358,139.111 162.930,140.858 156.735 C 141.990 152.720,141.778 152.919,145.403 152.463 C 147.094 152.250,148.723 152.029,149.023 151.971 C 149.323 151.913,150.539 151.781,151.726 151.677 C 152.912 151.572,154.667 151.416,155.626 151.329 C 159.458 150.981,160.794 150.912,167.195 150.731 C 170.856 150.627,174.921 150.652,176.228 150.786 L 178.605 151.030 178.830 153.509 C 178.954 154.872,179.278 157.281,179.551 158.862 C 179.824 160.443,180.110 162.251,180.186 162.881 C 180.629 166.520,180.780 167.456,181.344 170.048 C 183.530 180.097,188.554 187.318,194.503 188.961 C 199.455 190.328,211.999 182.209,216.317 174.842 C 224.238 161.325,222.506 153.994,210.654 150.883 C 203.837 149.094,201.997 148.878,195.880 149.145 C 189.357 149.429,186.204 149.427,182.694 149.135 L 180.127 148.921 179.911 144.587 C 179.791 142.204,179.629 139.540,179.549 138.669 C 179.469 137.797,179.258 134.659,179.081 131.696 C 178.903 128.732,178.619 124.667,178.449 122.662 C 177.917 116.386,178.098 115.689,180.253 115.689 C 180.480 115.689,180.666 115.547,180.666 115.372 C 180.666 115.198,180.951 115.055,181.300 115.055 C 181.648 115.055,181.933 114.913,181.933 114.739 C 181.933 114.564,182.178 114.422,182.477 114.422 C 182.776 114.422,184.226 113.833,185.698 113.113 C 187.171 112.394,190.100 110.976,192.207 109.963 C 196.107 108.088,205.723 103.113,207.448 102.077 C 207.971 101.763,210.325 100.525,212.678 99.327 C 215.032 98.128,217.005 97.040,217.063 96.910 C 217.121 96.779,217.349 96.672,217.569 96.672 C 218.184 96.672,219.968 95.712,219.968 95.381 C 219.968 95.219,219.683 95.087,219.334 95.087 C 218.986 95.087,218.700 95.230,218.700 95.404 C 218.700 95.578,218.415 95.721,218.067 95.721 C 217.718 95.721,217.433 95.864,217.433 96.038 C 217.433 96.212,217.241 96.355,217.007 96.355 C 216.458 96.355,212.573 98.252,202.377 103.497 C 190.238 109.741,180.205 114.739,179.807 114.739 C 179.582 114.739,179.398 114.881,179.398 115.055 C 179.398 115.516,178.134 115.445,177.982 114.976 C 177.814 114.455,177.536 110.983,177.317 106.656 C 177.219 104.739,176.838 99.176,176.469 94.295 C 175.722 84.412,175.612 65.658,176.259 58.479 C 176.601 54.688,176.293 47.262,175.582 42.158 C 175.186 39.313,173.945 38.477,172.462 40.056 M173.224 60.301 C 173.231 75.439,173.339 79.499,174.029 90.467 C 174.304 94.855,175.425 105.835,175.745 107.294 C 176.717 111.715,176.049 117.871,174.651 117.374 C 174.560 117.341,173.861 117.591,173.098 117.928 C 172.335 118.266,171.608 118.542,171.482 118.542 C 171.357 118.542,170.105 119.103,168.701 119.790 C 167.297 120.476,164.743 121.626,163.026 122.345 C 161.310 123.064,158.336 124.347,156.418 125.197 C 154.501 126.047,152.168 127.029,151.234 127.379 L 149.537 128.015 149.698 127.320 C 149.786 126.937,150.377 124.342,151.011 121.553 C 152.310 115.840,152.400 115.490,153.689 111.094 C 154.739 107.514,155.534 104.089,156.706 98.098 C 157.149 95.832,157.802 92.908,158.157 91.601 C 159.394 87.037,159.738 85.687,161.511 78.449 C 163.474 70.439,165.658 63.371,167.977 57.528 C 168.807 55.436,170.095 51.941,170.840 49.762 C 172.638 44.499,172.687 44.374,172.972 44.374 C 173.107 44.374,173.220 51.541,173.224 60.301 M292.914 57.676 C 291.458 58.193,289.033 59.286,287.526 60.106 C 286.019 60.926,281.719 63.156,277.971 65.062 C 271.757 68.222,267.601 70.516,263.681 72.949 C 262.881 73.445,262.130 73.851,262.011 73.851 C 261.892 73.851,260.906 74.389,259.820 75.047 C 258.734 75.704,257.025 76.642,256.022 77.130 C 255.020 77.619,254.200 78.142,254.200 78.293 C 254.200 78.833,254.791 78.920,255.261 78.450 C 255.524 78.187,255.891 77.971,256.078 77.971 C 256.479 77.971,264.515 73.843,266.561 72.586 C 268.161 71.602,273.574 68.599,276.704 66.959 C 277.837 66.365,278.899 65.747,279.065 65.586 C 279.231 65.425,279.623 65.293,279.937 65.293 C 280.250 65.293,280.507 65.151,280.507 64.976 C 280.507 64.802,280.792 64.659,281.141 64.659 C 281.490 64.659,281.775 64.517,281.775 64.342 C 281.775 64.168,281.932 64.025,282.124 64.025 C 282.316 64.025,283.920 63.286,285.690 62.382 C 287.459 61.478,290.689 60.081,292.868 59.278 C 295.459 58.323,296.830 57.658,296.830 57.356 C 296.830 56.593,295.707 56.685,292.914 57.676 M251.030 79.579 C 249.723 80.254,244.374 82.860,239.144 85.371 C 226.525 91.428,221.799 93.764,221.449 94.114 C 221.289 94.273,220.977 94.334,220.754 94.248 C 220.234 94.049,219.802 94.731,220.198 95.126 C 220.388 95.316,220.956 95.197,221.739 94.804 C 224.251 93.540,230.973 90.380,233.281 89.378 C 234.588 88.810,238.653 86.846,242.314 85.012 C 250.404 80.960,250.308 81.007,251.585 80.469 C 252.151 80.231,252.615 79.928,252.615 79.796 C 252.615 79.664,252.885 79.556,253.215 79.556 C 253.817 79.556,254.321 78.833,253.967 78.478 C 253.697 78.208,253.657 78.223,251.030 79.579 M176.588 119.814 C 176.698 120.945,176.955 124.081,177.159 126.783 C 177.363 129.485,177.592 132.266,177.668 132.964 C 177.958 135.625,178.099 137.897,178.308 143.265 L 178.524 148.811 172.384 148.844 C 169.007 148.862,164.960 149.036,163.391 149.230 C 161.823 149.425,159.184 149.665,157.528 149.765 C 155.872 149.864,152.111 150.161,149.170 150.424 C 143.102 150.967,142.892 150.929,145.156 149.702 C 146.060 149.212,149.463 147.063,152.718 144.926 C 155.973 142.789,158.951 140.905,159.334 140.740 C 160.375 140.292,161.121 138.978,160.879 138.016 C 160.483 136.438,156.434 135.369,150.792 135.352 C 146.531 135.339,146.740 135.572,147.960 132.181 C 148.952 129.423,148.208 129.919,156.735 126.334 C 160.222 124.868,164.501 123.000,166.244 122.184 C 171.487 119.727,173.166 118.955,174.247 118.502 C 174.814 118.265,175.277 117.952,175.277 117.807 C 175.277 117.663,175.527 117.593,175.832 117.651 C 176.266 117.735,176.430 118.206,176.588 119.814 M144.216 131.798 C 144.216 135.178,140.454 137.715,139.967 134.665 C 139.851 133.944,139.797 133.319,139.847 133.276 C 140.705 132.528,144.216 131.340,144.216 131.798 M136.292 132.647 C 136.292 133.163,136.114 133.439,135.782 133.439 C 135.448 133.439,135.339 133.267,135.465 132.938 C 135.571 132.662,135.658 132.305,135.658 132.145 C 135.658 131.985,135.800 131.854,135.975 131.854 C 136.149 131.854,136.292 132.211,136.292 132.647 M136.233 135.567 C 136.154 136.252,135.923 136.470,135.103 136.636 C 133.861 136.888,133.715 136.333,134.767 135.353 C 135.756 134.431,136.356 134.519,136.233 135.567 M155.690 138.544 C 158.106 139.049,158.134 139.253,156.005 140.782 C 152.021 143.643,143.971 148.653,143.359 148.653 C 143.013 148.653,145.108 140.405,145.773 139.144 C 146.247 138.247,152.465 137.871,155.690 138.544 M141.267 141.880 C 140.837 143.252,140.386 144.838,140.265 145.404 C 140.045 146.434,139.461 146.845,139.461 145.970 C 139.461 143.010,140.234 139.168,140.851 139.065 C 142.006 138.873,142.071 139.313,141.267 141.880 M136.444 141.759 C 136.555 142.849,136.602 145.665,136.548 148.018 L 136.450 152.296 135.233 152.694 C 134.184 153.038,125.078 154.992,124.525 154.992 C 124.416 154.992,124.584 154.457,124.899 153.803 C 125.213 153.150,125.721 151.331,126.027 149.762 C 126.686 146.387,127.100 145.680,127.100 147.930 C 127.100 149.986,127.316 150.532,128.273 150.896 C 130.043 151.569,130.708 150.525,131.377 146.021 C 132.209 140.419,132.535 139.895,135.236 139.810 C 136.240 139.778,136.241 139.780,136.444 141.759 M194.929 151.676 C 203.293 152.168,204.251 152.283,209.033 153.373 C 215.318 154.806,216.188 155.352,218.030 159.021 C 220.639 164.215,212.824 177.826,204.461 182.654 C 196.887 187.026,194.039 187.216,189.675 183.640 C 186.131 180.736,182.899 172.166,181.441 161.807 C 180.885 157.857,180.349 153.063,180.349 152.042 L 180.349 150.817 183.597 151.009 C 185.384 151.114,190.483 151.414,194.929 151.676 M126.149 156.697 C 126.149 156.763,125.258 157.142,124.168 157.540 C 122.414 158.180,119.546 159.430,113.788 162.065 C 112.829 162.503,111.117 163.216,109.984 163.648 C 108.851 164.080,104.786 165.998,100.951 167.910 C 97.116 169.822,92.908 171.773,91.601 172.246 C 90.293 172.719,88.724 173.306,88.114 173.550 C 84.652 174.935,82.320 175.659,79.489 176.227 C 74.274 177.272,73.744 176.986,77.575 175.193 C 78.926 174.561,81.601 173.306,83.518 172.404 C 88.946 169.852,98.499 165.616,100.951 164.674 C 102.171 164.205,103.455 163.704,103.803 163.561 C 105.763 162.755,120.118 157.917,122.504 157.258 C 124.620 156.674,126.149 156.438,126.149 156.697 " stroke="none" fill="#1291ed" fill-rule="evenodd"></path><path id="path1" d="M0.000 158.479 L 0.000 316.957 200.000 316.957 L 400.000 316.957 400.000 158.479 L 400.000 0.000 200.000 0.000 L 0.000 0.000 0.000 158.479 M175.071 39.458 C 176.018 40.405,176.169 41.416,176.828 51.189 C 176.934 52.758,176.911 55.610,176.776 57.528 C 176.341 63.726,176.352 86.300,176.793 91.284 C 177.016 93.811,177.332 98.162,177.495 100.951 C 178.291 114.619,178.436 115.722,179.253 114.400 C 179.368 114.214,179.657 114.136,179.895 114.228 C 180.133 114.319,180.399 114.280,180.485 114.140 C 180.571 114.000,181.610 113.416,182.793 112.841 C 193.752 107.514,199.124 104.714,199.314 104.229 C 199.372 104.080,199.553 104.040,199.716 104.141 C 199.879 104.241,200.473 104.045,201.036 103.704 C 202.449 102.849,214.635 96.719,217.136 95.605 C 218.258 95.105,219.390 94.573,219.651 94.421 C 220.146 94.135,229.991 89.189,231.379 88.530 C 231.815 88.323,232.742 87.876,233.439 87.536 C 236.010 86.282,241.782 83.544,245.322 81.898 C 247.326 80.967,249.014 80.058,249.074 79.879 C 249.134 79.699,249.277 79.610,249.393 79.681 C 249.509 79.751,250.103 79.545,250.713 79.223 C 251.323 78.901,252.179 78.473,252.615 78.271 C 253.051 78.069,253.621 77.783,253.883 77.635 C 254.144 77.486,256.070 76.488,258.162 75.415 C 260.254 74.342,262.156 73.310,262.388 73.121 C 262.984 72.638,268.200 69.731,268.471 69.731 C 268.594 69.731,269.034 69.467,269.450 69.144 C 270.298 68.486,272.816 67.072,275.436 65.782 C 276.395 65.310,277.432 64.790,277.740 64.626 C 284.589 60.995,290.900 57.836,291.918 57.530 C 292.353 57.399,292.853 57.189,293.027 57.063 C 294.690 55.861,297.306 56.068,297.306 57.401 C 297.306 57.954,295.186 59.271,294.297 59.271 C 293.653 59.271,288.529 61.448,286.867 62.429 C 285.968 62.958,285.120 63.391,284.982 63.391 C 284.715 63.391,277.102 67.247,274.168 68.868 C 273.209 69.397,271.783 70.179,270.998 70.604 C 270.214 71.029,269.429 71.487,269.255 71.623 C 269.081 71.759,267.940 72.396,266.719 73.039 C 265.499 73.682,264.002 74.504,263.391 74.866 C 262.781 75.228,259.715 76.831,256.577 78.429 C 253.439 80.027,250.586 81.497,250.238 81.696 C 248.499 82.688,229.777 91.602,225.753 93.355 C 225.012 93.677,224.406 94.057,224.406 94.197 C 224.406 94.338,224.129 94.453,223.790 94.453 C 223.452 94.453,223.087 94.596,222.979 94.770 C 222.872 94.945,222.507 95.087,222.168 95.087 C 221.830 95.087,221.553 95.230,221.553 95.404 C 221.553 95.578,221.351 95.721,221.104 95.721 C 220.857 95.721,219.752 96.198,218.648 96.780 C 217.544 97.363,214.643 98.882,212.203 100.157 C 209.762 101.431,206.696 103.044,205.388 103.740 C 200.814 106.177,189.025 112.071,184.469 114.200 C 181.941 115.381,179.659 116.465,179.398 116.608 C 178.667 117.009,178.868 125.886,179.862 137.120 C 179.940 138.012,180.089 140.223,180.192 142.033 C 180.459 146.718,180.626 148.402,180.845 148.620 C 180.951 148.725,185.767 148.778,191.549 148.736 C 202.873 148.655,204.420 148.792,211.086 150.458 C 220.104 152.712,224.125 159.373,220.711 166.403 C 220.161 167.536,219.175 169.818,218.521 171.474 C 215.230 179.803,203.044 189.566,195.979 189.533 C 192.024 189.515,187.367 185.934,184.973 181.070 C 184.306 179.714,183.577 178.249,183.352 177.813 C 182.539 176.238,181.314 172.330,180.836 169.789 C 180.062 165.670,178.809 157.625,178.465 154.552 C 178.291 153.003,178.061 151.648,177.954 151.541 C 177.418 151.007,156.085 151.526,152.139 152.169 C 151.181 152.325,149.658 152.454,148.756 152.455 C 147.854 152.456,146.357 152.612,145.428 152.803 C 144.500 152.993,143.430 153.207,143.052 153.278 C 142.400 153.400,141.892 154.372,141.576 156.101 C 141.512 156.450,141.297 157.134,141.097 157.621 C 140.897 158.108,140.653 158.830,140.554 159.225 C 139.612 162.977,135.336 162.511,135.834 158.710 C 136.031 157.209,136.100 155.837,136.009 155.245 C 135.990 155.123,134.941 155.498,133.677 156.079 C 128.071 158.655,118.844 162.601,118.431 162.600 C 118.022 162.599,109.450 166.903,107.290 168.194 C 106.244 168.820,104.532 169.875,103.487 170.538 C 99.616 172.995,93.618 175.590,88.590 176.983 C 78.222 179.856,72.682 180.476,71.142 178.937 C 69.219 177.013,70.168 176.229,79.398 172.120 C 82.878 170.570,84.491 169.821,84.945 169.544 C 85.206 169.384,85.705 169.126,86.054 168.970 C 86.403 168.814,88.485 167.831,90.681 166.785 C 92.878 165.739,96.301 164.286,98.288 163.556 C 103.702 161.567,107.847 160.025,108.558 159.735 C 109.875 159.199,116.217 156.933,117.433 156.564 C 118.130 156.352,119.057 156.002,119.493 155.786 C 119.929 155.570,120.449 155.453,120.649 155.525 C 120.850 155.598,120.722 155.068,120.366 154.348 C 119.661 152.924,119.015 147.718,119.305 145.800 C 119.601 143.843,119.328 143.754,115.815 144.664 C 110.017 146.167,108.420 146.625,108.198 146.847 C 108.076 146.969,107.739 147.068,107.448 147.068 C 107.157 147.068,106.076 147.337,105.044 147.665 C 104.013 147.994,101.387 148.795,99.208 149.445 C 97.029 150.095,95.103 150.730,94.929 150.858 C 94.754 150.985,93.685 151.454,92.552 151.899 C 91.418 152.345,89.564 153.140,88.431 153.666 C 80.767 157.226,69.976 161.527,66.719 162.320 C 66.022 162.489,63.740 163.177,61.648 163.847 C 52.405 166.809,40.017 168.927,38.431 167.817 C 37.014 166.824,38.193 164.501,40.114 164.501 C 40.513 164.501,42.241 164.016,43.954 163.424 C 48.813 161.743,53.025 160.479,57.818 159.263 C 60.243 158.647,64.023 157.564,66.217 156.855 C 68.411 156.146,71.500 155.149,73.081 154.638 C 74.663 154.127,76.232 153.650,76.568 153.576 C 76.904 153.503,78.320 153.071,79.715 152.616 C 81.109 152.161,84.675 151.079,87.639 150.210 C 90.602 149.342,93.170 148.583,93.344 148.524 C 93.518 148.465,93.732 148.410,93.819 148.403 C 93.906 148.395,94.762 148.078,95.721 147.699 C 96.680 147.319,99.105 146.467,101.109 145.807 C 104.186 144.793,112.828 141.741,117.854 139.894 C 119.084 139.442,119.206 139.307,119.026 138.592 C 118.566 136.758,120.823 135.691,122.216 137.084 C 123.313 138.181,123.369 138.141,124.134 135.734 C 124.507 134.559,125.116 132.774,125.487 131.767 C 125.857 130.760,126.242 129.048,126.342 127.963 C 126.697 124.108,127.541 123.074,129.673 123.884 C 131.075 124.418,131.369 125.115,131.545 128.337 L 131.712 131.379 132.599 129.477 C 133.088 128.429,133.814 125.876,134.215 123.791 C 135.142 118.977,136.203 117.859,138.288 119.499 C 139.292 120.289,139.656 122.008,139.931 127.249 C 140.168 131.774,139.880 131.390,142.344 130.471 L 144.374 129.713 145.280 127.376 C 146.384 124.533,149.180 117.216,149.748 115.689 C 150.127 114.669,151.832 107.887,153.452 100.951 C 153.819 99.382,154.239 97.813,154.386 97.464 C 154.533 97.116,154.878 95.903,155.152 94.770 C 155.427 93.637,155.770 92.353,155.916 91.918 C 156.062 91.482,156.333 90.412,156.518 89.540 C 158.121 81.997,159.516 76.776,163.101 64.917 C 163.348 64.099,163.550 63.165,163.550 62.841 C 163.550 62.516,163.667 62.115,163.810 61.949 C 164.073 61.644,164.794 59.780,166.868 54.041 C 167.498 52.298,168.146 50.586,168.308 50.238 C 168.729 49.332,170.886 42.090,170.904 41.521 C 170.958 39.873,173.986 38.374,175.071 39.458 M171.947 48.246 C 171.812 48.818,171.687 49.387,171.667 49.509 C 171.648 49.631,171.454 49.909,171.236 50.127 C 171.018 50.345,170.840 50.707,170.840 50.933 C 170.840 51.269,169.413 55.155,168.302 57.845 C 168.157 58.193,167.869 58.978,167.660 59.588 C 167.450 60.198,166.719 62.266,166.033 64.184 C 165.347 66.101,164.433 69.025,164.001 70.681 C 163.569 72.338,163.082 74.120,162.920 74.643 C 162.758 75.166,162.388 76.593,162.099 77.813 C 160.902 82.857,160.372 85.040,159.133 90.016 C 157.802 95.367,157.702 95.800,156.545 101.268 C 156.176 103.011,155.677 105.211,155.436 106.157 C 155.195 107.103,155.067 107.946,155.151 108.030 C 155.235 108.114,155.176 108.338,155.019 108.529 C 154.863 108.719,154.501 109.731,154.216 110.777 C 153.930 111.823,153.485 113.397,153.226 114.276 C 152.968 115.155,152.629 116.581,152.472 117.445 C 151.997 120.080,151.234 123.364,150.687 125.137 C 150.401 126.062,150.223 126.873,150.290 126.941 C 150.408 127.059,156.859 124.573,159.113 123.540 C 159.723 123.260,162.076 122.219,164.342 121.226 C 166.609 120.232,169.653 118.866,171.109 118.188 C 172.564 117.511,173.864 116.957,173.998 116.957 C 176.217 116.957,176.250 115.185,174.336 99.208 C 173.285 90.431,172.665 77.260,172.577 61.869 C 172.497 47.696,172.428 46.199,171.947 48.246 M172.879 119.591 C 171.472 120.321,169.832 121.123,169.234 121.373 C 168.635 121.622,166.292 122.661,164.025 123.682 C 158.113 126.346,156.847 126.901,152.780 128.614 L 149.142 130.146 148.443 132.189 C 148.058 133.312,147.734 134.375,147.722 134.551 C 147.710 134.749,148.671 134.826,150.269 134.753 C 154.161 134.577,159.328 135.642,160.561 136.876 C 162.249 138.564,161.251 140.287,157.293 142.518 C 156.205 143.131,155.233 143.766,155.132 143.928 C 154.957 144.211,152.025 146.174,150.713 146.885 C 146.327 149.265,145.276 150.688,148.494 149.889 C 149.017 149.759,151.371 149.563,153.724 149.453 C 158.522 149.228,159.625 149.154,165.928 148.631 C 168.369 148.428,172.041 148.316,174.089 148.381 L 177.813 148.499 177.813 144.511 C 177.813 142.317,177.673 138.964,177.502 137.060 C 177.330 135.156,177.047 132.029,176.872 130.111 C 176.697 128.193,176.479 125.341,176.388 123.772 C 176.183 120.270,175.905 118.219,175.638 118.244 C 175.527 118.254,174.285 118.860,172.879 119.591 M141.442 132.961 C 139.893 133.634,139.913 135.341,141.471 135.341 C 142.579 135.341,143.265 134.487,143.265 133.107 C 143.265 132.381,142.852 132.348,141.442 132.961 M148.031 138.800 C 146.072 139.010,146.242 138.680,144.093 146.495 L 143.684 147.982 144.633 147.491 C 146.469 146.542,149.779 144.450,151.376 143.230 C 152.264 142.552,153.090 141.997,153.212 141.997 C 153.431 141.997,155.322 140.738,155.626 140.389 C 155.713 140.289,156.034 140.115,156.339 140.003 C 158.919 139.051,153.284 138.235,148.031 138.800 M140.412 140.862 C 140.412 141.632,140.336 142.523,140.244 142.843 C 139.978 143.760,140.579 142.341,140.991 141.079 C 141.347 139.990,141.255 139.461,140.710 139.461 C 140.546 139.461,140.412 140.091,140.412 140.862 M134.187 140.475 C 132.697 140.790,132.841 140.446,131.871 146.028 C 131.168 150.078,130.917 150.684,129.679 151.325 C 128.711 151.825,126.789 151.056,126.778 150.163 C 126.769 149.424,126.159 150.674,126.154 151.442 C 126.151 151.843,125.925 152.605,125.650 153.136 C 125.006 154.382,125.101 154.440,127.080 154.016 C 127.991 153.820,128.904 153.629,129.107 153.590 C 129.311 153.551,130.939 153.185,132.726 152.777 L 135.975 152.035 136.015 149.155 C 136.136 140.384,136.071 140.076,134.187 140.475 M180.824 152.835 C 181.383 157.899,181.719 160.320,182.284 163.361 C 182.638 165.262,182.981 167.244,183.047 167.767 C 183.659 172.599,187.751 181.715,190.016 183.291 C 194.777 186.603,195.347 186.606,202.398 183.368 C 207.116 181.202,215.848 171.725,215.848 168.772 C 215.848 168.515,215.990 168.304,216.165 168.304 C 216.339 168.304,216.482 168.095,216.482 167.838 C 216.482 167.582,216.849 166.570,217.297 165.590 C 220.287 159.054,216.601 155.039,205.705 152.964 C 204.509 152.736,192.527 151.976,185.186 151.663 L 180.673 151.470 180.824 152.835 M114.263 160.411 C 111.823 161.276,108.756 162.346,107.448 162.790 C 106.141 163.234,104.643 163.782,104.120 164.009 C 103.597 164.235,101.244 165.172,98.891 166.092 C 96.537 167.011,92.971 168.542,90.967 169.495 C 88.962 170.447,86.537 171.583,85.578 172.019 C 84.620 172.454,82.837 173.273,81.616 173.838 C 80.396 174.403,78.934 175.064,78.368 175.307 C 77.214 175.802,76.937 176.362,78.051 175.947 C 78.443 175.800,79.436 175.582,80.257 175.461 C 81.714 175.248,87.006 173.664,88.273 173.063 C 88.621 172.897,90.386 172.181,92.195 171.471 C 95.556 170.151,96.580 169.670,103.862 165.983 C 106.160 164.819,108.134 163.867,108.249 163.867 C 108.474 163.867,119.247 159.110,119.466 158.914 C 119.895 158.530,118.172 159.026,114.263 160.411 " stroke="none" fill="#fbfbfb" fill-rule="evenodd"></path><path id="path2" d="M176.002 44.849 C 176.004 45.721,176.066 46.040,176.139 45.558 C 176.212 45.076,176.210 44.363,176.134 43.973 C 176.059 43.584,176.000 43.978,176.002 44.849 M172.647 45.115 C 172.557 45.349,172.599 46.026,172.739 46.621 C 172.987 47.674,172.995 47.663,173.026 46.197 C 173.059 44.673,172.943 44.343,172.647 45.115 M176.658 54.041 C 176.657 55.610,176.710 56.292,176.777 55.556 C 176.843 54.821,176.844 53.537,176.779 52.704 C 176.713 51.870,176.659 52.472,176.658 54.041 M172.832 56.577 C 172.835 57.448,172.896 57.767,172.969 57.286 C 173.042 56.804,173.040 56.091,172.965 55.701 C 172.890 55.311,172.830 55.705,172.832 56.577 M176.315 59.271 C 176.315 60.055,176.376 60.376,176.452 59.984 C 176.527 59.592,176.527 58.950,176.452 58.558 C 176.376 58.166,176.315 58.487,176.315 59.271 M172.822 59.746 C 172.825 60.444,172.890 60.692,172.966 60.297 C 173.042 59.903,173.039 59.333,172.959 59.030 C 172.880 58.727,172.818 59.049,172.822 59.746 M172.832 67.987 C 172.835 68.859,172.896 69.178,172.969 68.696 C 173.042 68.214,173.040 67.501,172.965 67.111 C 172.890 66.721,172.830 67.116,172.832 67.987 M176.033 71.315 C 176.033 73.494,176.084 74.386,176.146 73.296 C 176.208 72.207,176.208 70.424,176.146 69.334 C 176.084 68.245,176.033 69.136,176.033 71.315 M172.832 71.791 C 172.835 72.662,172.896 72.981,172.969 72.500 C 173.042 72.018,173.040 71.305,172.965 70.915 C 172.890 70.525,172.830 70.919,172.832 71.791 M173.145 79.239 C 173.145 80.024,173.207 80.345,173.282 79.952 C 173.358 79.560,173.358 78.918,173.282 78.526 C 173.207 78.134,173.145 78.455,173.145 79.239 M176.013 84.311 C 176.013 85.444,176.070 85.907,176.141 85.341 C 176.211 84.774,176.211 83.847,176.141 83.281 C 176.070 82.714,176.013 83.177,176.013 84.311 M173.471 85.895 C 173.471 86.854,173.530 87.246,173.603 86.767 C 173.675 86.288,173.675 85.503,173.603 85.024 C 173.530 84.544,173.471 84.937,173.471 85.895 M176.315 89.065 C 176.315 89.849,176.376 90.170,176.452 89.778 C 176.527 89.386,176.527 88.744,176.452 88.352 C 176.376 87.960,176.315 88.281,176.315 89.065 M173.779 91.284 C 173.779 92.068,173.841 92.389,173.916 91.997 C 173.992 91.605,173.992 90.963,173.916 90.571 C 173.841 90.178,173.779 90.499,173.779 91.284 M176.625 93.027 C 176.629 93.724,176.694 93.972,176.769 93.578 C 176.845 93.184,176.842 92.613,176.763 92.310 C 176.684 92.007,176.622 92.330,176.625 93.027 M177.265 101.743 C 177.265 102.528,177.327 102.849,177.403 102.456 C 177.478 102.064,177.478 101.422,177.403 101.030 C 177.327 100.638,177.265 100.959,177.265 101.743 M175.985 115.372 C 175.985 115.983,176.050 116.232,176.130 115.927 C 176.209 115.622,176.209 115.123,176.130 114.818 C 176.050 114.513,175.985 114.762,175.985 115.372 M179.161 131.379 C 179.164 132.076,179.229 132.324,179.305 131.930 C 179.381 131.535,179.378 130.965,179.299 130.662 C 179.219 130.359,179.157 130.681,179.161 131.379 M150.468 138.422 C 151.031 138.492,152.029 138.493,152.687 138.425 C 153.345 138.356,152.884 138.299,151.664 138.297 C 150.444 138.296,149.906 138.352,150.468 138.422 M135.242 139.983 C 135.624 140.066,135.999 140.413,136.077 140.753 C 136.186 141.235,136.208 141.213,136.175 140.655 C 136.144 140.127,135.923 139.923,135.341 139.885 C 134.681 139.841,134.664 139.858,135.242 139.983 M177.899 141.363 C 177.899 142.147,177.961 142.468,178.037 142.076 C 178.112 141.684,178.112 141.042,178.037 140.650 C 177.961 140.258,177.899 140.578,177.899 141.363 M190.729 149.194 C 191.121 149.269,191.763 149.269,192.155 149.194 C 192.548 149.118,192.227 149.056,191.442 149.056 C 190.658 149.056,190.337 149.118,190.729 149.194 M165.848 151.099 C 166.327 151.171,167.112 151.171,167.591 151.099 C 168.071 151.026,167.678 150.967,166.719 150.967 C 165.761 150.967,165.368 151.026,165.848 151.099 M174.089 151.099 C 174.568 151.171,175.353 151.171,175.832 151.099 C 176.311 151.026,175.919 150.967,174.960 150.967 C 174.002 150.967,173.609 151.026,174.089 151.099 M180.429 152.298 C 180.432 152.995,180.497 153.243,180.573 152.849 C 180.649 152.455,180.646 151.884,180.566 151.581 C 180.487 151.278,180.425 151.601,180.429 152.298 M123.945 157.195 C 123.692 157.355,123.371 157.416,123.232 157.330 C 123.093 157.244,122.979 157.324,122.979 157.509 C 122.979 157.938,123.017 157.935,124.290 157.382 C 124.877 157.127,125.143 156.915,124.881 156.911 C 124.620 156.907,124.199 157.035,123.945 157.195 M218.474 161.807 C 218.477 162.678,218.538 162.997,218.611 162.515 C 218.684 162.034,218.682 161.321,218.607 160.931 C 218.531 160.541,218.472 160.935,218.474 161.807 M221.627 161.648 C 221.627 162.258,221.692 162.508,221.772 162.203 C 221.851 161.898,221.851 161.399,221.772 161.094 C 221.692 160.788,221.627 161.038,221.627 161.648 M76.285 175.990 C 75.811 176.338,75.872 176.391,76.779 176.426 C 77.348 176.447,77.562 176.401,77.254 176.322 C 76.947 176.244,76.777 176.048,76.877 175.887 C 77.125 175.485,76.926 175.520,76.285 175.990 M73.459 179.622 C 73.853 179.698,74.423 179.695,74.726 179.616 C 75.029 179.536,74.707 179.474,74.010 179.478 C 73.312 179.481,73.064 179.546,73.459 179.622 M195.325 189.442 C 195.630 189.522,196.129 189.522,196.434 189.442 C 196.739 189.362,196.490 189.297,195.880 189.297 C 195.269 189.297,195.020 189.362,195.325 189.442 " stroke="none" fill="#9ddef9" fill-rule="evenodd"></path><path id="path3" d="M172.619 39.245 C 172.530 39.388,172.884 39.442,173.405 39.366 C 174.023 39.275,174.567 39.422,174.973 39.789 C 175.711 40.457,175.814 40.201,175.096 39.484 C 174.574 38.961,172.894 38.800,172.619 39.245 M175.985 42.472 C 175.985 43.082,176.050 43.332,176.130 43.027 C 176.209 42.722,176.209 42.223,176.130 41.918 C 176.050 41.613,175.985 41.862,175.985 42.472 M169.609 46.012 C 169.589 46.303,169.490 46.802,169.390 47.121 C 169.217 47.672,169.226 47.673,169.569 47.137 C 169.769 46.827,169.867 46.328,169.789 46.028 C 169.660 45.537,169.642 45.536,169.609 46.012 M172.382 46.513 C 172.319 46.819,172.344 48.994,172.439 51.347 L 172.611 55.626 172.677 50.792 C 172.737 46.272,172.662 45.178,172.382 46.513 M176.302 46.910 C 176.302 47.520,176.367 47.769,176.447 47.464 C 176.526 47.159,176.526 46.660,176.447 46.355 C 176.367 46.050,176.302 46.300,176.302 46.910 M176.631 50.079 C 176.631 50.864,176.693 51.185,176.769 50.792 C 176.844 50.400,176.844 49.758,176.769 49.366 C 176.693 48.974,176.631 49.295,176.631 50.079 M172.515 57.845 C 172.518 58.716,172.579 59.035,172.652 58.553 C 172.725 58.072,172.723 57.359,172.648 56.969 C 172.573 56.579,172.513 56.973,172.515 57.845 M176.631 58.003 C 176.631 58.788,176.693 59.109,176.769 58.716 C 176.844 58.324,176.844 57.682,176.769 57.290 C 176.693 56.898,176.631 57.219,176.631 58.003 M290.016 58.320 C 289.406 58.654,289.049 58.927,289.223 58.927 C 289.398 58.927,290.040 58.654,290.650 58.320 C 291.260 57.986,291.616 57.713,291.442 57.713 C 291.268 57.713,290.626 57.986,290.016 58.320 M176.353 64.818 C 176.354 67.258,176.404 68.215,176.464 66.943 C 176.524 65.672,176.524 63.675,176.463 62.506 C 176.402 61.337,176.353 62.377,176.353 64.818 M163.946 61.722 C 163.728 62.187,163.556 62.788,163.562 63.058 C 163.569 63.329,163.787 63.061,164.046 62.464 C 164.607 61.172,164.517 60.504,163.946 61.722 M172.856 63.708 C 172.856 65.365,172.909 66.042,172.975 65.214 C 173.040 64.386,173.040 63.031,172.975 62.203 C 172.909 61.375,172.856 62.052,172.856 63.708 M283.914 61.354 C 282.686 62.021,282.825 62.251,284.073 61.616 C 285.268 61.008,285.479 60.851,285.077 60.868 C 284.917 60.875,284.394 61.094,283.914 61.354 M285.895 62.623 C 284.762 63.229,284.154 63.641,284.544 63.538 C 285.319 63.334,288.114 61.833,288.114 61.621 C 288.114 61.433,288.151 61.416,285.895 62.623 M279.627 63.601 C 279.055 63.883,278.640 64.165,278.703 64.229 C 278.839 64.364,280.824 63.410,280.824 63.210 C 280.824 63.018,280.782 63.032,279.627 63.601 M281.379 64.841 C 280.194 65.483,280.266 65.751,281.458 65.135 C 281.981 64.864,282.409 64.575,282.409 64.493 C 282.409 64.289,282.375 64.300,281.379 64.841 M275.520 65.672 C 274.782 66.050,274.230 66.411,274.293 66.475 C 274.424 66.605,277.021 65.299,277.021 65.103 C 277.021 64.911,276.964 64.933,275.520 65.672 M270.602 68.328 C 268.964 69.401,269.099 69.618,270.761 68.583 C 272.359 67.587,272.461 67.506,272.081 67.531 C 271.922 67.541,271.256 67.899,270.602 68.328 M172.543 72.425 C 172.544 74.342,172.596 75.086,172.659 74.077 C 172.722 73.068,172.722 71.499,172.658 70.591 C 172.594 69.682,172.543 70.507,172.543 72.425 M268.384 71.814 C 267.199 72.456,267.271 72.724,268.463 72.108 C 268.986 71.837,269.414 71.548,269.414 71.466 C 269.414 71.262,269.380 71.273,268.384 71.814 M263.154 72.580 C 262.587 72.925,262.124 73.276,262.124 73.360 C 262.124 73.444,262.623 73.218,263.233 72.858 C 263.843 72.498,264.342 72.146,264.342 72.076 C 264.342 71.874,264.242 71.916,263.154 72.580 M261.965 75.436 C 261.442 75.782,261.157 76.063,261.331 76.061 C 261.649 76.056,263.372 74.820,263.074 74.811 C 262.987 74.808,262.488 75.089,261.965 75.436 M176.032 78.764 C 176.033 80.856,176.084 81.670,176.146 80.574 C 176.208 79.478,176.208 77.766,176.145 76.770 C 176.082 75.775,176.032 76.672,176.032 78.764 M255.586 76.678 C 254.866 77.004,254.189 77.415,254.081 77.590 C 253.973 77.765,254.597 77.554,255.468 77.119 C 256.339 76.685,257.052 76.271,257.052 76.200 C 257.052 76.014,257.031 76.021,255.586 76.678 M172.828 77.655 C 172.828 78.439,172.890 78.760,172.965 78.368 C 173.041 77.975,173.041 77.334,172.965 76.941 C 172.890 76.549,172.828 76.870,172.828 77.655 M251.937 78.624 L 251.189 79.277 252.139 78.720 C 253.391 77.987,253.410 77.971,253.020 77.971 C 252.836 77.971,252.348 78.265,251.937 78.624 M158.677 79.913 C 158.412 81.234,158.669 81.490,158.954 80.190 C 159.074 79.642,159.107 79.128,159.026 79.047 C 158.945 78.966,158.788 79.356,158.677 79.913 M254.200 79.162 C 254.200 79.294,253.764 79.595,253.231 79.830 C 252.698 80.066,252.324 80.322,252.401 80.399 C 252.478 80.475,253.092 80.231,253.766 79.855 C 255.300 78.999,255.380 78.922,254.728 78.922 C 254.437 78.922,254.200 79.030,254.200 79.162 M173.165 82.726 C 173.165 84.033,173.221 84.568,173.290 83.914 C 173.358 83.261,173.358 82.191,173.290 81.537 C 173.221 80.884,173.165 81.418,173.165 82.726 M249.366 81.812 C 248.712 82.143,248.177 82.481,248.177 82.563 C 248.177 82.752,249.722 82.093,250.546 81.552 C 251.453 80.956,250.750 81.111,249.366 81.812 M242.155 83.360 C 240.848 84.040,239.921 84.596,240.095 84.596 C 240.269 84.596,241.482 84.040,242.789 83.360 C 244.097 82.680,245.024 82.123,244.849 82.123 C 244.675 82.123,243.463 82.680,242.155 83.360 M160.590 82.964 C 160.198 84.410,160.070 85.394,160.332 84.945 C 160.645 84.409,161.068 82.409,160.869 82.409 C 160.798 82.409,160.672 82.658,160.590 82.964 M243.106 84.945 C 242.496 85.279,242.111 85.558,242.250 85.565 C 242.586 85.583,244.374 84.653,244.374 84.461 C 244.374 84.254,244.355 84.261,243.106 84.945 M176.319 86.371 C 176.321 87.242,176.383 87.561,176.456 87.080 C 176.529 86.598,176.527 85.885,176.451 85.495 C 176.376 85.105,176.316 85.499,176.319 86.371 M157.070 86.705 C 156.951 87.341,156.916 87.925,156.994 88.003 C 157.071 88.080,157.232 87.623,157.352 86.987 C 157.471 86.351,157.505 85.767,157.428 85.690 C 157.350 85.612,157.189 86.069,157.070 86.705 M159.324 87.850 C 159.026 89.092,158.839 90.165,158.909 90.235 C 158.980 90.305,159.285 89.351,159.588 88.114 C 159.891 86.877,160.078 85.804,160.002 85.729 C 159.927 85.654,159.622 86.608,159.324 87.850 M236.450 86.054 C 236.014 86.303,235.800 86.507,235.975 86.507 C 236.149 86.507,236.648 86.303,237.084 86.054 C 237.520 85.805,237.734 85.601,237.559 85.601 C 237.385 85.601,236.886 85.805,236.450 86.054 M240.571 86.212 C 239.960 86.546,239.575 86.826,239.715 86.833 C 240.051 86.851,241.838 85.921,241.838 85.729 C 241.838 85.521,241.820 85.528,240.571 86.212 M173.466 88.906 C 173.469 89.778,173.530 90.097,173.603 89.615 C 173.676 89.133,173.674 88.420,173.599 88.031 C 173.523 87.641,173.464 88.035,173.466 88.906 M232.286 88.133 L 231.537 88.786 232.488 88.229 C 233.740 87.496,233.758 87.480,233.368 87.480 C 233.184 87.480,232.697 87.774,232.286 88.133 M176.636 90.491 C 176.638 91.363,176.700 91.682,176.773 91.200 C 176.845 90.718,176.844 90.005,176.768 89.615 C 176.693 89.225,176.633 89.620,176.636 90.491 M228.526 89.857 C 227.742 90.277,227.242 90.621,227.417 90.621 C 227.591 90.621,228.376 90.277,229.160 89.857 C 229.945 89.437,230.444 89.094,230.269 89.094 C 230.095 89.094,229.311 89.437,228.526 89.857 M230.745 90.808 C 229.960 91.228,229.461 91.572,229.635 91.572 C 229.810 91.572,230.594 91.228,231.379 90.808 C 232.163 90.388,232.662 90.044,232.488 90.044 C 232.314 90.044,231.529 90.388,230.745 90.808 M173.758 93.661 C 173.748 94.358,173.854 95.571,173.993 96.355 C 174.350 98.361,174.378 96.247,174.024 93.978 C 173.784 92.434,173.777 92.426,173.758 93.661 M155.190 94.493 C 154.926 95.814,155.182 96.070,155.468 94.770 C 155.588 94.222,155.620 93.708,155.539 93.627 C 155.459 93.546,155.302 93.936,155.190 94.493 M176.936 95.087 C 176.936 95.697,177.001 95.947,177.081 95.642 C 177.160 95.337,177.160 94.838,177.081 94.532 C 177.001 94.227,176.936 94.477,176.936 95.087 M154.253 97.517 C 154.136 97.633,154.053 98.097,154.068 98.547 C 154.095 99.351,154.101 99.349,154.375 98.431 C 154.663 97.466,154.621 97.149,154.253 97.517 M177.274 98.891 C 177.274 99.849,177.333 100.242,177.406 99.762 C 177.479 99.283,177.479 98.498,177.406 98.019 C 177.333 97.540,177.274 97.932,177.274 98.891 M211.331 98.278 C 210.677 98.623,210.143 98.977,210.143 99.063 C 210.143 99.204,212.646 98.034,212.969 97.742 C 213.334 97.412,212.381 97.724,211.331 98.278 M174.413 99.208 C 174.413 99.992,174.475 100.313,174.550 99.921 C 174.626 99.529,174.626 98.887,174.550 98.494 C 174.475 98.102,174.413 98.423,174.413 99.208 M211.648 100.180 C 210.994 100.525,210.460 100.878,210.460 100.965 C 210.460 101.051,211.030 100.831,211.727 100.475 C 212.425 100.120,212.995 99.760,212.995 99.677 C 212.995 99.469,212.993 99.470,211.648 100.180 M174.717 101.743 C 174.717 102.353,174.782 102.603,174.862 102.298 C 174.942 101.993,174.942 101.494,174.862 101.189 C 174.782 100.884,174.717 101.133,174.717 101.743 M202.139 103.033 C 201.486 103.378,200.951 103.731,200.951 103.818 C 200.951 103.904,201.521 103.684,202.219 103.328 C 202.916 102.972,203.487 102.613,203.487 102.529 C 203.487 102.322,203.484 102.323,202.139 103.033 M177.594 105.071 C 177.596 106.117,177.655 106.507,177.726 105.937 C 177.796 105.368,177.795 104.512,177.723 104.036 C 177.650 103.559,177.592 104.025,177.594 105.071 M155.507 104.635 C 155.243 105.957,155.499 106.213,155.784 104.913 C 155.905 104.365,155.937 103.851,155.856 103.770 C 155.776 103.689,155.619 104.079,155.507 104.635 M175.047 104.913 C 175.047 105.697,175.109 106.018,175.184 105.626 C 175.260 105.234,175.260 104.592,175.184 104.200 C 175.109 103.807,175.047 104.128,175.047 104.913 M199.208 104.329 C 199.033 104.490,198.605 104.837,198.257 105.100 C 197.778 105.461,197.894 105.448,198.732 105.046 C 200.083 104.400,200.107 104.380,199.783 104.190 C 199.641 104.105,199.382 104.168,199.208 104.329 M202.377 105.063 C 201.680 105.493,201.208 105.848,201.329 105.854 C 201.604 105.866,203.803 104.579,203.803 104.406 C 203.803 104.200,203.706 104.245,202.377 105.063 M175.351 107.448 C 175.351 108.059,175.416 108.308,175.496 108.003 C 175.576 107.698,175.576 107.199,175.496 106.894 C 175.416 106.589,175.351 106.838,175.351 107.448 M198.415 107.132 C 197.805 107.466,197.420 107.745,197.559 107.752 C 197.895 107.770,199.683 106.840,199.683 106.648 C 199.683 106.441,199.664 106.448,198.415 107.132 M192.314 108.104 C 191.660 108.449,191.125 108.802,191.125 108.889 C 191.125 108.975,191.696 108.755,192.393 108.399 C 193.090 108.044,193.661 107.684,193.661 107.601 C 193.661 107.393,193.659 107.394,192.314 108.104 M177.887 110.301 C 177.887 110.911,177.952 111.161,178.031 110.856 C 178.111 110.551,178.111 110.052,178.031 109.746 C 177.952 109.441,177.887 109.691,177.887 110.301 M190.729 110.957 C 190.075 111.302,189.540 111.655,189.540 111.741 C 189.540 111.883,192.044 110.713,192.367 110.421 C 192.731 110.091,191.779 110.402,190.729 110.957 M175.685 112.044 C 175.687 112.916,175.749 113.235,175.822 112.753 C 175.895 112.271,175.893 111.558,175.817 111.168 C 175.742 110.779,175.683 111.173,175.685 112.044 M178.181 113.867 C 178.148 114.638,178.269 115.052,178.526 115.045 C 179.028 115.033,180.279 114.105,179.794 114.105 C 179.597 114.105,179.347 114.247,179.239 114.422 C 178.861 115.033,178.486 114.729,178.359 113.708 C 178.233 112.694,178.231 112.697,178.181 113.867 M180.824 115.689 C 180.716 115.864,180.316 116.023,179.934 116.043 C 179.407 116.071,179.372 116.115,179.788 116.224 C 180.090 116.303,180.657 116.144,181.047 115.870 C 181.438 115.596,181.592 115.372,181.389 115.372 C 181.186 115.372,180.932 115.515,180.824 115.689 M178.484 118.463 C 178.523 120.397,178.663 120.208,178.835 117.987 C 178.892 117.246,178.828 116.640,178.693 116.640 C 178.558 116.640,178.463 117.460,178.484 118.463 M172.742 117.433 C 172.306 117.682,172.092 117.886,172.266 117.886 C 172.441 117.886,172.940 117.682,173.376 117.433 C 173.811 117.184,174.025 116.980,173.851 116.980 C 173.677 116.980,173.177 117.184,172.742 117.433 M175.844 118.859 C 175.920 119.382,176.038 119.810,176.106 119.810 C 176.173 119.810,176.228 119.382,176.228 118.859 C 176.228 118.336,176.110 117.908,175.966 117.908 C 175.822 117.908,175.767 118.336,175.844 118.859 M172.504 119.503 C 172.112 119.660,171.791 119.865,171.791 119.958 C 171.791 120.266,172.295 120.133,172.919 119.661 C 173.620 119.131,173.522 119.094,172.504 119.503 M176.308 121.870 C 176.312 122.567,176.377 122.815,176.452 122.421 C 176.528 122.027,176.525 121.456,176.446 121.153 C 176.367 120.850,176.305 121.173,176.308 121.870 M134.246 123.469 C 134.125 124.278,134.090 125.004,134.169 125.083 C 134.249 125.163,134.413 124.566,134.534 123.757 C 134.655 122.949,134.690 122.223,134.610 122.143 C 134.531 122.064,134.367 122.661,134.246 123.469 M165.531 122.672 C 164.470 123.099,164.668 123.316,165.769 122.932 C 166.292 122.750,166.719 122.543,166.719 122.473 C 166.719 122.285,166.334 122.350,165.531 122.672 M139.556 124.247 C 139.556 125.206,139.616 125.598,139.688 125.119 C 139.761 124.639,139.761 123.855,139.688 123.376 C 139.616 122.896,139.556 123.288,139.556 124.247 M160.143 122.989 C 159.081 123.416,159.280 123.633,160.380 123.249 C 160.903 123.067,161.331 122.860,161.331 122.790 C 161.331 122.602,160.945 122.667,160.143 122.989 M150.633 124.239 C 150.076 126.024,150.169 126.591,150.747 124.939 C 151.011 124.186,151.182 123.436,151.127 123.272 C 151.073 123.107,150.850 123.543,150.633 124.239 M162.599 124.089 C 161.815 124.509,161.315 124.852,161.490 124.852 C 161.664 124.852,162.448 124.509,163.233 124.089 C 164.017 123.669,164.517 123.325,164.342 123.325 C 164.168 123.325,163.384 123.669,162.599 124.089 M178.837 124.881 C 178.837 125.491,178.903 125.741,178.982 125.436 C 179.062 125.131,179.062 124.632,178.982 124.326 C 178.903 124.021,178.837 124.271,178.837 124.881 M126.539 126.466 C 126.539 127.076,126.605 127.326,126.684 127.021 C 126.764 126.716,126.764 126.216,126.684 125.911 C 126.605 125.606,126.539 125.856,126.539 126.466 M131.285 128.922 C 131.217 132.318,131.283 132.605,131.875 131.499 C 132.109 131.061,132.117 130.899,131.898 131.035 C 131.674 131.173,131.527 130.316,131.456 128.458 L 131.351 125.674 131.285 128.922 M176.636 127.258 C 176.638 128.130,176.700 128.449,176.773 127.967 C 176.845 127.485,176.844 126.772,176.768 126.382 C 176.693 125.992,176.633 126.387,176.636 127.258 M156.894 126.624 C 156.458 126.874,156.244 127.077,156.418 127.077 C 156.593 127.077,157.092 126.874,157.528 126.624 C 157.964 126.375,158.177 126.171,158.003 126.171 C 157.829 126.171,157.330 126.375,156.894 126.624 M149.946 126.883 C 149.920 127.472,150.641 127.423,151.823 126.754 C 152.466 126.390,152.044 126.397,151.072 126.767 C 150.510 126.981,150.235 126.958,150.125 126.688 C 150.040 126.479,149.960 126.567,149.946 126.883 M179.179 128.526 C 179.181 129.572,179.240 129.962,179.311 129.392 C 179.381 128.822,179.380 127.967,179.307 127.490 C 179.235 127.014,179.177 127.480,179.179 128.526 M151.669 128.720 C 150.452 129.235,149.320 129.792,149.154 129.958 C 148.988 130.125,150.053 129.754,151.520 129.135 C 152.987 128.517,154.250 127.948,154.326 127.872 C 154.643 127.555,153.752 127.839,151.669 128.720 M132.857 128.857 C 132.325 130.022,132.427 130.271,133.001 129.211 C 133.269 128.716,133.429 128.252,133.357 128.180 C 133.284 128.107,133.059 128.412,132.857 128.857 M139.906 129.635 C 139.937 131.423,140.764 131.955,141.832 130.874 C 142.048 130.655,141.859 130.658,141.263 130.883 C 140.772 131.069,140.316 131.220,140.249 131.220 C 140.183 131.220,140.072 130.471,140.002 129.556 L 139.876 127.892 139.906 129.635 M143.165 132.092 C 143.089 132.223,143.142 132.615,143.282 132.964 C 143.505 133.517,143.540 133.487,143.559 132.726 C 143.581 131.866,143.433 131.628,143.165 132.092 M179.488 133.914 C 179.491 134.786,179.552 135.105,179.625 134.623 C 179.698 134.141,179.696 133.428,179.621 133.038 C 179.546 132.649,179.486 133.043,179.488 133.914 M140.475 133.185 C 139.510 134.151,140.014 135.661,141.284 135.607 C 142.454 135.557,142.456 135.554,141.442 135.428 C 140.245 135.280,139.927 133.753,140.967 133.147 C 141.272 132.970,141.372 132.820,141.189 132.815 C 141.006 132.809,140.685 132.976,140.475 133.185 M177.259 134.548 C 177.263 135.246,177.327 135.494,177.403 135.099 C 177.479 134.705,177.476 134.135,177.397 133.831 C 177.318 133.528,177.255 133.851,177.259 134.548 M149.683 134.940 C 150.511 135.005,151.866 135.005,152.694 134.940 C 153.522 134.874,152.845 134.821,151.189 134.821 C 149.532 134.821,148.855 134.874,149.683 134.940 M134.865 135.658 C 134.305 136.276,134.312 136.292,135.133 136.292 C 135.596 136.292,135.975 136.153,135.975 135.985 C 135.975 135.816,135.725 135.756,135.420 135.852 C 134.946 136.001,134.955 135.953,135.481 135.525 C 135.819 135.249,135.948 135.024,135.767 135.024 C 135.587 135.024,135.181 135.309,134.865 135.658 M123.794 136.473 C 123.678 136.937,123.644 137.378,123.718 137.453 C 123.793 137.528,123.950 137.209,124.066 136.744 C 124.183 136.280,124.217 135.839,124.142 135.764 C 124.068 135.689,123.911 136.008,123.794 136.473 M122.205 137.322 C 122.497 137.801,122.969 138.182,123.254 138.168 C 123.675 138.148,123.685 138.109,123.307 137.961 C 123.052 137.860,122.580 137.479,122.258 137.114 C 121.685 136.462,121.684 136.466,122.205 137.322 M179.788 138.827 C 179.788 139.437,179.854 139.687,179.933 139.382 C 180.013 139.077,180.013 138.578,179.933 138.273 C 179.854 137.968,179.788 138.217,179.788 138.827 M146.321 138.754 C 146.238 138.888,146.765 138.952,147.491 138.896 C 149.624 138.731,149.883 138.587,148.117 138.547 C 147.212 138.527,146.404 138.620,146.321 138.754 M155.562 138.889 C 156.608 139.159,156.880 139.358,156.732 139.747 C 156.578 140.153,156.619 140.175,156.938 139.857 C 157.495 139.305,156.992 138.911,155.468 138.707 L 154.200 138.537 155.562 138.889 M119.176 139.043 C 119.176 139.220,118.855 139.519,118.463 139.708 C 118.071 139.897,117.901 140.062,118.085 140.074 C 118.618 140.108,119.675 139.221,119.413 138.959 C 119.283 138.828,119.176 138.866,119.176 139.043 M140.215 141.265 C 140.257 142.344,140.176 143.156,140.035 143.069 C 139.894 142.982,139.788 143.596,139.799 144.435 L 139.821 145.959 140.230 144.650 C 140.515 143.740,140.563 142.726,140.389 141.322 L 140.138 139.303 140.215 141.265 M140.927 140.900 C 140.818 141.183,140.741 141.653,140.756 141.944 C 140.771 142.234,140.909 142.052,141.063 141.537 C 141.362 140.537,141.256 140.042,140.927 140.900 M136.079 143.423 C 136.080 144.643,136.137 145.104,136.206 144.446 C 136.275 143.789,136.273 142.790,136.203 142.227 C 136.133 141.665,136.077 142.203,136.079 143.423 M151.811 142.963 L 150.713 143.928 152.060 143.079 C 152.801 142.612,153.407 142.177,153.407 142.113 C 153.407 141.773,152.787 142.103,151.811 142.963 M180.073 144.216 C 180.056 145.523,180.150 146.764,180.284 146.974 C 180.417 147.184,180.479 146.328,180.421 145.072 C 180.271 141.829,180.111 141.433,180.073 144.216 M144.590 143.639 C 144.402 144.381,144.303 145.042,144.369 145.109 C 144.436 145.176,144.652 144.631,144.849 143.899 C 145.047 143.166,145.146 142.505,145.070 142.429 C 144.994 142.353,144.778 142.898,144.590 143.639 M154.200 144.257 C 152.406 145.600,152.108 145.967,153.442 145.189 C 154.408 144.626,156.002 143.218,155.596 143.286 C 155.525 143.298,154.897 143.735,154.200 144.257 M117.750 143.926 C 117.242 144.166,117.299 144.189,118.036 144.044 C 118.623 143.928,119.053 144.013,119.220 144.276 C 119.418 144.587,119.484 144.553,119.488 144.136 C 119.493 143.529,118.773 143.442,117.750 143.926 M177.924 146.117 C 177.924 147.599,177.978 148.205,178.045 147.464 C 178.112 146.723,178.112 145.511,178.045 144.770 C 177.978 144.029,177.924 144.635,177.924 146.117 M119.271 147.068 C 119.271 148.027,119.330 148.419,119.403 147.940 C 119.476 147.460,119.476 146.676,119.403 146.197 C 119.330 145.717,119.271 146.109,119.271 147.068 M97.781 146.898 C 96.557 147.459,97.127 147.467,98.574 146.910 C 99.184 146.675,99.469 146.478,99.208 146.473 C 98.946 146.467,98.304 146.659,97.781 146.898 M136.039 149.167 L 135.975 152.059 133.278 152.625 C 131.795 152.936,130.644 153.253,130.721 153.330 C 130.988 153.597,136.036 152.349,136.177 151.981 C 136.255 151.778,136.271 150.411,136.211 148.943 L 136.104 146.276 136.039 149.167 M143.661 147.603 C 143.708 148.220,144.849 148.134,144.849 147.514 C 144.849 147.422,144.691 147.446,144.497 147.565 C 144.303 147.685,144.024 147.589,143.877 147.350 C 143.685 147.039,143.624 147.111,143.661 147.603 M180.449 148.177 C 180.504 148.722,180.757 148.816,182.253 148.842 L 183.994 148.872 182.350 148.747 C 181.149 148.655,180.663 148.476,180.546 148.082 C 180.428 147.688,180.402 147.714,180.449 148.177 M169.983 148.572 C 171.342 148.631,173.481 148.631,174.737 148.571 C 175.993 148.511,174.881 148.462,172.266 148.463 C 169.651 148.463,168.624 148.512,169.983 148.572 M164.742 148.877 C 165.136 148.953,165.707 148.950,166.010 148.871 C 166.313 148.791,165.990 148.729,165.293 148.733 C 164.596 148.736,164.348 148.801,164.742 148.877 M195.498 148.889 C 196.945 148.948,199.227 148.948,200.570 148.888 C 201.912 148.829,200.729 148.781,197.940 148.781 C 195.151 148.782,194.052 148.830,195.498 148.889 M119.515 150.740 C 119.527 151.597,119.655 152.583,119.798 152.932 C 119.950 153.304,119.989 152.715,119.891 151.506 C 119.689 149.013,119.485 148.597,119.515 150.740 M145.325 149.921 C 144.645 150.371,144.532 150.551,144.929 150.553 C 145.234 150.554,145.483 150.437,145.483 150.293 C 145.483 150.148,145.876 150.058,146.355 150.092 C 146.834 150.126,146.975 150.091,146.667 150.015 C 146.360 149.938,146.190 149.743,146.290 149.581 C 146.552 149.158,146.393 149.213,145.325 149.921 M155.547 149.511 C 155.939 149.586,156.581 149.586,156.973 149.511 C 157.365 149.435,157.044 149.373,156.260 149.373 C 155.475 149.373,155.155 149.435,155.547 149.511 M148.336 149.915 C 147.889 150.054,148.579 150.091,149.921 149.998 C 151.228 149.907,152.357 149.781,152.430 149.718 C 152.684 149.498,149.122 149.669,148.336 149.915 M170.607 151.099 C 171.088 151.172,171.802 151.170,172.191 151.095 C 172.581 151.020,172.187 150.960,171.315 150.962 C 170.444 150.965,170.125 151.026,170.607 151.099 M161.892 151.418 C 162.461 151.489,163.317 151.487,163.793 151.415 C 164.270 151.343,163.803 151.285,162.758 151.287 C 161.712 151.289,161.322 151.348,161.892 151.418 M177.397 151.410 C 177.798 151.488,178.148 151.838,178.226 152.238 C 178.337 152.809,178.368 152.778,178.404 152.060 C 178.441 151.301,178.335 151.194,177.575 151.232 C 176.858 151.267,176.826 151.299,177.397 151.410 M214.537 151.676 C 215.124 151.931,215.694 152.134,215.805 152.128 C 216.217 152.105,214.403 151.211,213.946 151.212 C 213.685 151.213,213.951 151.422,214.537 151.676 M156.973 151.724 C 157.278 151.804,157.777 151.804,158.082 151.724 C 158.387 151.644,158.138 151.579,157.528 151.579 C 156.918 151.579,156.668 151.644,156.973 151.724 M186.771 151.733 C 187.253 151.806,187.966 151.804,188.356 151.729 C 188.746 151.653,188.352 151.594,187.480 151.596 C 186.609 151.599,186.290 151.660,186.771 151.733 M192.794 152.050 C 193.275 152.123,193.989 152.121,194.378 152.046 C 194.768 151.970,194.374 151.911,193.502 151.913 C 192.631 151.916,192.312 151.977,192.794 152.050 M149.208 152.363 C 149.600 152.439,150.242 152.439,150.634 152.363 C 151.026 152.288,150.705 152.226,149.921 152.226 C 149.136 152.226,148.815 152.288,149.208 152.363 M198.344 152.372 C 199.090 152.439,200.231 152.438,200.880 152.370 C 201.529 152.302,200.919 152.247,199.525 152.248 C 198.130 152.249,197.599 152.305,198.344 152.372 M180.752 153.724 C 180.752 154.509,180.814 154.830,180.889 154.437 C 180.965 154.045,180.965 153.403,180.889 153.011 C 180.814 152.619,180.752 152.940,180.752 153.724 M143.661 152.992 C 143.966 153.072,144.465 153.072,144.770 152.992 C 145.075 152.912,144.826 152.847,144.216 152.847 C 143.605 152.847,143.356 152.912,143.661 152.992 M88.114 153.566 C 87.678 153.815,87.464 154.019,87.639 154.019 C 87.813 154.019,88.312 153.815,88.748 153.566 C 89.184 153.317,89.398 153.113,89.223 153.113 C 89.049 153.113,88.550 153.317,88.114 153.566 M120.127 153.953 C 120.127 154.137,120.421 154.625,120.780 155.036 L 121.432 155.784 120.875 154.834 C 120.143 153.582,120.127 153.563,120.127 153.953 M210.607 154.213 C 211.473 154.450,212.235 154.590,212.301 154.524 C 212.459 154.366,210.118 153.720,209.509 153.754 C 209.247 153.769,209.741 153.975,210.607 154.213 M132.488 156.418 C 132.052 156.668,131.838 156.871,132.013 156.871 C 132.187 156.871,132.686 156.668,133.122 156.418 C 133.558 156.169,133.772 155.965,133.597 155.965 C 133.423 155.965,132.924 156.169,132.488 156.418 M178.764 157.351 C 178.764 157.776,178.881 158.196,179.023 158.285 C 179.166 158.373,179.221 158.025,179.146 157.511 C 178.980 156.378,178.764 156.288,178.764 157.351 M114.897 157.381 C 113.617 157.967,114.382 157.968,115.732 157.382 C 116.319 157.127,116.585 156.925,116.323 156.932 C 116.062 156.939,115.420 157.141,114.897 157.381 M135.937 157.775 C 135.833 158.405,135.879 158.701,136.055 158.525 C 136.215 158.365,136.292 157.897,136.227 157.485 C 136.128 156.851,136.083 156.895,135.937 157.775 M121.870 157.680 C 121.696 157.736,120.290 158.162,118.747 158.626 C 117.204 159.090,116.005 159.534,116.083 159.612 C 116.161 159.690,116.841 159.536,117.595 159.270 C 118.348 159.004,119.211 158.865,119.512 158.960 C 119.814 159.056,120.288 158.906,120.566 158.628 C 120.845 158.349,121.183 158.189,121.317 158.272 C 121.451 158.355,121.916 158.227,122.349 157.987 C 123.045 157.602,122.732 157.402,121.870 157.680 M140.148 159.413 C 139.963 159.945,139.879 160.380,139.961 160.380 C 140.175 160.380,140.773 158.734,140.616 158.577 C 140.544 158.505,140.334 158.881,140.148 159.413 M135.685 159.632 C 135.670 160.005,135.907 160.582,136.212 160.915 C 136.517 161.247,136.650 161.344,136.507 161.129 C 136.364 160.914,136.127 160.336,135.980 159.846 C 135.763 159.123,135.707 159.082,135.685 159.632 M113.312 160.550 C 112.520 160.932,112.493 160.976,113.154 160.814 C 114.052 160.595,115.061 160.080,114.580 160.087 C 114.406 160.090,113.835 160.298,113.312 160.550 M52.298 160.712 C 51.951 160.947,52.079 160.976,52.773 160.821 C 53.939 160.560,54.192 160.379,53.381 160.385 C 53.047 160.388,52.559 160.535,52.298 160.712 M179.613 162.124 C 179.714 162.995,179.849 163.768,179.914 163.840 C 180.137 164.090,179.968 162.123,179.699 161.331 C 179.518 160.797,179.489 161.055,179.613 162.124 M49.287 161.648 C 48.887 161.820,48.829 161.921,49.128 161.921 C 49.390 161.921,49.889 161.798,50.238 161.648 C 50.637 161.476,50.696 161.376,50.396 161.376 C 50.135 161.376,49.635 161.498,49.287 161.648 M67.512 161.807 C 66.785 162.086,66.621 162.238,67.036 162.247 C 67.385 162.254,68.027 162.056,68.463 161.807 C 69.451 161.242,68.978 161.242,67.512 161.807 M119.334 161.982 C 118.637 162.312,118.281 162.580,118.542 162.577 C 118.803 162.575,119.517 162.299,120.127 161.965 C 121.550 161.186,120.992 161.198,119.334 161.982 M111.569 162.441 C 111.133 162.690,110.919 162.894,111.094 162.894 C 111.268 162.894,111.767 162.690,112.203 162.441 C 112.639 162.191,112.853 161.988,112.678 161.988 C 112.504 161.988,112.005 162.191,111.569 162.441 M44.849 163.069 C 42.344 164.061,42.996 164.076,45.642 163.086 C 46.775 162.662,47.488 162.315,47.227 162.315 C 46.965 162.315,45.895 162.654,44.849 163.069 M116.006 163.391 C 115.571 163.641,115.357 163.844,115.531 163.844 C 115.705 163.844,116.204 163.641,116.640 163.391 C 117.076 163.142,117.290 162.938,117.116 162.938 C 116.941 162.938,116.442 163.142,116.006 163.391 M97.781 163.720 C 96.989 164.101,96.962 164.145,97.623 163.984 C 98.521 163.764,99.530 163.250,99.049 163.257 C 98.875 163.259,98.304 163.468,97.781 163.720 M60.697 163.867 C 60.298 164.039,60.239 164.139,60.539 164.139 C 60.800 164.139,61.300 164.017,61.648 163.867 C 62.048 163.695,62.106 163.594,61.807 163.594 C 61.545 163.594,61.046 163.717,60.697 163.867 M103.645 163.859 C 103.384 164.009,102.701 164.305,102.129 164.517 C 101.557 164.729,101.135 164.949,101.191 165.005 C 101.246 165.060,101.786 164.922,102.389 164.697 C 104.307 163.981,105.086 163.590,104.596 163.589 C 104.334 163.588,103.906 163.710,103.645 163.859 M38.592 165.214 C 38.181 165.606,38.087 165.741,38.381 165.513 C 38.676 165.285,39.325 164.976,39.823 164.827 C 40.575 164.602,40.610 164.551,40.034 164.528 C 39.651 164.513,39.002 164.822,38.592 165.214 M220.506 166.248 C 220.216 166.856,220.044 167.353,220.124 167.353 C 220.341 167.353,221.303 165.413,221.158 165.268 C 221.089 165.199,220.796 165.640,220.506 166.248 M98.574 165.927 C 98.138 166.176,97.924 166.380,98.098 166.380 C 98.273 166.380,98.772 166.176,99.208 165.927 C 99.643 165.678,99.857 165.474,99.683 165.474 C 99.509 165.474,99.010 165.678,98.574 165.927 M95.880 167.019 C 95.182 167.349,94.754 167.620,94.929 167.621 C 95.361 167.624,97.862 166.453,97.464 166.434 C 97.290 166.426,96.577 166.689,95.880 167.019 M101.027 167.320 C 99.202 168.391,98.637 168.912,100.117 168.158 C 101.758 167.323,103.206 166.403,102.853 166.420 C 102.678 166.428,101.857 166.833,101.027 167.320 M108.318 167.326 C 107.015 168.161,106.835 168.455,107.983 167.871 C 108.539 167.589,109.082 167.214,109.190 167.039 C 109.445 166.627,109.369 166.652,108.318 167.326 M43.185 167.889 C 43.490 167.969,43.990 167.969,44.295 167.889 C 44.600 167.809,44.350 167.744,43.740 167.744 C 43.130 167.744,42.880 167.809,43.185 167.889 M39.382 168.206 C 39.687 168.286,40.186 168.286,40.491 168.206 C 40.796 168.126,40.547 168.061,39.937 168.061 C 39.326 168.061,39.077 168.126,39.382 168.206 M101.664 171.338 C 100.479 171.981,100.551 172.249,101.743 171.632 C 102.266 171.362,102.694 171.073,102.694 170.990 C 102.694 170.786,102.660 170.798,101.664 171.338 M183.563 171.157 C 183.563 171.418,183.685 171.918,183.835 172.266 C 184.007 172.666,184.108 172.724,184.108 172.425 C 184.108 172.163,183.985 171.664,183.835 171.315 C 183.663 170.916,183.563 170.857,183.563 171.157 M78.288 172.598 C 77.504 173.005,76.971 173.347,77.103 173.357 C 77.408 173.381,80.190 172.081,80.190 171.914 C 80.190 171.686,79.723 171.854,78.288 172.598 M88.827 172.752 C 87.766 173.178,87.964 173.395,89.065 173.011 C 89.588 172.829,90.016 172.622,90.016 172.552 C 90.016 172.364,89.630 172.429,88.827 172.752 M217.057 174.050 C 216.593 174.920,216.425 175.456,216.683 175.242 C 217.133 174.868,218.168 172.738,217.987 172.557 C 217.939 172.509,217.521 173.181,217.057 174.050 M81.698 173.458 C 79.987 174.411,80.433 174.470,82.277 173.535 C 83.134 173.100,83.621 172.756,83.360 172.771 C 83.098 172.786,82.350 173.095,81.698 173.458 M96.989 173.693 C 96.379 174.027,96.022 174.300,96.197 174.300 C 96.371 174.300,97.013 174.027,97.623 173.693 C 98.233 173.359,98.590 173.085,98.415 173.085 C 98.241 173.085,97.599 173.359,96.989 173.693 M184.492 174.168 C 184.492 174.342,184.695 174.842,184.945 175.277 C 185.194 175.713,185.398 175.927,185.398 175.753 C 185.398 175.578,185.194 175.079,184.945 174.643 C 184.695 174.208,184.492 173.994,184.492 174.168 M78.130 175.926 C 77.688 176.126,77.880 176.155,78.764 176.020 C 79.461 175.914,80.091 175.775,80.164 175.711 C 80.436 175.471,78.738 175.650,78.130 175.926 M182.590 176.070 C 182.590 176.244,182.794 176.743,183.043 177.179 C 183.292 177.615,183.496 177.829,183.496 177.655 C 183.496 177.480,183.292 176.981,183.043 176.545 C 182.794 176.109,182.590 175.895,182.590 176.070 M209.509 177.971 C 208.739 178.756,208.180 179.398,208.267 179.398 C 208.355 179.398,209.056 178.756,209.826 177.971 C 210.596 177.187,211.154 176.545,211.067 176.545 C 210.980 176.545,210.279 177.187,209.509 177.971 M185.737 176.984 C 185.737 177.324,186.680 179.081,186.863 179.081 C 186.950 179.081,186.785 178.617,186.497 178.051 C 185.909 176.894,185.737 176.653,185.737 176.984 M81.775 178.447 C 81.148 178.648,81.115 178.701,81.616 178.701 C 81.965 178.701,82.607 178.586,83.043 178.447 C 83.670 178.246,83.703 178.193,83.201 178.193 C 82.853 178.193,82.211 178.307,81.775 178.447 M211.560 180.745 L 209.350 183.043 211.648 180.833 C 213.783 178.780,214.091 178.447,213.858 178.447 C 213.810 178.447,212.776 179.481,211.560 180.745 M75.515 179.616 C 75.820 179.696,76.319 179.696,76.624 179.616 C 76.929 179.537,76.680 179.471,76.070 179.471 C 75.460 179.471,75.210 179.537,75.515 179.616 M188.223 181.841 C 188.583 182.513,190.126 183.811,191.125 184.283 C 191.387 184.407,191.257 184.249,190.837 183.934 C 190.417 183.618,189.573 182.861,188.961 182.250 C 188.220 181.511,187.974 181.375,188.223 181.841 M208.062 184.231 L 207.132 185.261 208.162 184.331 C 208.728 183.819,209.192 183.355,209.192 183.300 C 209.192 183.056,208.930 183.271,208.062 184.231 M187.639 185.261 C 188.230 185.872,188.785 186.371,188.872 186.371 C 188.960 186.371,188.547 185.872,187.956 185.261 C 187.364 184.651,186.809 184.152,186.722 184.152 C 186.635 184.152,187.047 184.651,187.639 185.261 M204.437 186.529 C 203.653 186.949,203.124 187.300,203.261 187.307 C 203.598 187.327,206.022 186.081,206.022 185.889 C 206.022 185.679,206.035 185.674,204.437 186.529 M191.125 187.781 C 191.125 187.868,191.553 188.161,192.076 188.431 C 192.599 188.702,193.027 188.851,193.027 188.764 C 193.027 188.677,192.599 188.385,192.076 188.114 C 191.553 187.844,191.125 187.694,191.125 187.781 " stroke="none" fill="#caf8fb" fill-rule="evenodd"></path><path id="path4" d="M172.109 40.094 C 171.700 40.529,171.426 40.938,171.499 41.003 C 171.572 41.068,171.964 40.712,172.370 40.212 C 173.277 39.093,173.117 39.021,172.109 40.094 M172.864 51.347 C 172.864 53.526,172.914 54.418,172.976 53.328 C 173.038 52.239,173.038 50.456,172.976 49.366 C 172.914 48.277,172.864 49.168,172.864 51.347 M176.315 50.396 C 176.315 51.181,176.376 51.502,176.452 51.109 C 176.527 50.717,176.527 50.075,176.452 49.683 C 176.376 49.291,176.315 49.612,176.315 50.396 M294.929 56.721 C 294.468 56.909,294.654 56.968,295.609 56.937 C 296.332 56.913,296.859 56.787,296.779 56.656 C 296.597 56.356,295.752 56.386,294.929 56.721 M285.816 60.720 C 284.631 61.363,284.703 61.631,285.895 61.014 C 286.418 60.744,286.846 60.455,286.846 60.372 C 286.846 60.168,286.812 60.180,285.816 60.720 M173.176 63.708 C 173.176 65.539,173.228 66.288,173.292 65.372 C 173.356 64.457,173.356 62.960,173.292 62.044 C 173.228 61.129,173.176 61.878,173.176 63.708 M176.031 64.025 C 176.031 66.030,176.083 66.850,176.145 65.848 C 176.208 64.845,176.208 63.205,176.145 62.203 C 176.083 61.200,176.031 62.021,176.031 64.025 M278.605 65.962 C 278.170 66.322,277.992 66.524,278.210 66.411 C 280.037 65.467,280.290 65.298,279.873 65.302 C 279.612 65.305,279.041 65.602,278.605 65.962 M162.700 67.116 C 162.372 68.168,162.381 68.234,162.781 67.689 C 163.160 67.174,163.422 65.927,163.152 65.927 C 163.108 65.927,162.904 66.462,162.700 67.116 M274.723 66.425 C 273.538 67.068,273.610 67.336,274.802 66.719 C 275.325 66.449,275.753 66.160,275.753 66.077 C 275.753 65.873,275.719 65.885,274.723 66.425 M268.067 71.654 C 267.413 71.999,266.878 72.352,266.878 72.439 C 266.878 72.525,267.448 72.305,268.146 71.949 C 268.843 71.594,269.414 71.234,269.414 71.150 C 269.414 70.943,269.411 70.944,268.067 71.654 M257.417 76.072 C 256.485 76.570,255.633 77.066,255.525 77.174 C 254.977 77.723,258.493 75.982,259.097 75.406 C 259.554 74.970,259.265 75.084,257.417 76.072 M173.132 77.021 C 173.132 77.631,173.197 77.880,173.277 77.575 C 173.357 77.270,173.357 76.771,173.277 76.466 C 173.197 76.161,173.132 76.410,173.132 77.021 M175.712 79.239 C 175.712 81.070,175.764 81.819,175.828 80.903 C 175.892 79.988,175.892 78.490,175.828 77.575 C 175.764 76.660,175.712 77.409,175.712 79.239 M257.254 77.498 C 256.754 77.758,256.113 77.983,255.827 77.996 C 255.481 78.013,255.444 78.076,255.717 78.185 C 256.103 78.340,258.320 77.471,258.320 77.164 C 258.320 76.956,258.254 76.976,257.254 77.498 M249.516 81.351 C 248.944 81.632,248.529 81.915,248.593 81.979 C 248.728 82.114,250.713 81.160,250.713 80.959 C 250.713 80.767,250.671 80.781,249.516 81.351 M173.449 82.409 C 173.449 83.019,173.514 83.269,173.594 82.964 C 173.674 82.658,173.674 82.159,173.594 81.854 C 173.514 81.549,173.449 81.799,173.449 82.409 M234.548 87.322 C 234.113 87.571,233.899 87.775,234.073 87.775 C 234.247 87.775,234.746 87.571,235.182 87.322 C 235.618 87.073,235.832 86.869,235.658 86.869 C 235.483 86.869,234.984 87.073,234.548 87.322 M173.772 88.906 C 173.776 89.604,173.841 89.852,173.917 89.457 C 173.993 89.063,173.990 88.493,173.910 88.190 C 173.831 87.887,173.769 88.209,173.772 88.906 M158.162 91.284 C 157.948 92.174,157.836 92.966,157.913 93.043 C 157.990 93.120,158.223 92.449,158.430 91.552 C 158.637 90.655,158.749 89.863,158.678 89.793 C 158.608 89.722,158.375 90.393,158.162 91.284 M176.302 91.284 C 176.302 91.894,176.367 92.143,176.447 91.838 C 176.526 91.533,176.526 91.034,176.447 90.729 C 176.367 90.424,176.302 90.674,176.302 91.284 M226.624 91.125 C 225.840 91.545,225.341 91.889,225.515 91.889 C 225.689 91.889,226.474 91.545,227.258 91.125 C 228.043 90.705,228.542 90.361,228.368 90.361 C 228.193 90.361,227.409 90.705,226.624 91.125 M156.297 91.337 C 156.276 91.628,156.178 92.127,156.077 92.446 C 155.905 92.997,155.914 92.997,156.257 92.462 C 156.457 92.152,156.555 91.653,156.476 91.353 C 156.348 90.862,156.330 90.861,156.297 91.337 M157.233 95.268 C 157.016 96.242,156.898 97.099,156.973 97.174 C 157.048 97.249,157.287 96.513,157.505 95.540 C 157.723 94.567,157.840 93.709,157.765 93.634 C 157.691 93.560,157.451 94.295,157.233 95.268 M176.625 95.246 C 176.629 95.943,176.694 96.191,176.769 95.797 C 176.845 95.402,176.842 94.832,176.763 94.529 C 176.684 94.226,176.622 94.548,176.625 95.246 M215.531 96.540 C 215.042 96.811,214.927 96.981,215.230 96.984 C 215.500 96.987,215.857 96.860,216.022 96.703 C 216.188 96.545,216.609 96.348,216.957 96.264 L 217.591 96.112 216.957 96.106 C 216.609 96.103,215.967 96.298,215.531 96.540 M217.829 96.579 C 217.437 96.654,217.116 96.849,217.116 97.011 C 217.116 97.173,216.910 97.306,216.659 97.306 C 216.408 97.306,216.100 97.471,215.976 97.672 C 215.852 97.873,215.879 97.968,216.037 97.884 C 216.194 97.799,216.858 97.485,217.512 97.186 C 218.166 96.887,218.700 96.578,218.700 96.499 C 218.700 96.420,218.665 96.374,218.621 96.398 C 218.578 96.422,218.221 96.503,217.829 96.579 M176.966 99.049 C 176.968 100.269,177.025 100.730,177.093 100.072 C 177.162 99.415,177.161 98.416,177.091 97.853 C 177.021 97.291,176.965 97.829,176.966 99.049 M208.479 101.448 C 207.825 101.793,207.290 102.146,207.290 102.233 C 207.290 102.319,207.861 102.099,208.558 101.743 C 209.255 101.388,209.826 101.028,209.826 100.944 C 209.826 100.737,209.823 100.738,208.479 101.448 M177.283 105.071 C 177.284 106.292,177.342 106.752,177.410 106.094 C 177.479 105.437,177.478 104.438,177.408 103.876 C 177.338 103.313,177.282 103.851,177.283 105.071 M152.298 106.815 C 152.178 107.362,152.145 107.877,152.226 107.958 C 152.307 108.038,152.464 107.649,152.575 107.092 C 152.840 105.771,152.583 105.515,152.298 106.815 M197.385 107.311 C 196.557 107.742,195.880 108.166,195.880 108.252 C 195.880 108.339,196.593 108.049,197.464 107.607 C 198.336 107.165,199.049 106.735,199.049 106.651 C 199.049 106.441,199.078 106.430,197.385 107.311 M175.998 113.154 C 175.998 113.938,176.059 114.259,176.135 113.867 C 176.210 113.475,176.210 112.833,176.135 112.441 C 176.059 112.048,175.998 112.369,175.998 113.154 M152.954 113.335 C 152.838 113.799,152.804 114.241,152.878 114.315 C 152.953 114.390,153.110 114.071,153.226 113.607 C 153.343 113.142,153.377 112.701,153.302 112.626 C 153.228 112.551,153.071 112.870,152.954 113.335 M177.941 114.422 C 177.964 115.032,178.153 115.226,178.764 115.266 C 179.424 115.309,179.441 115.293,178.862 115.167 C 178.466 115.081,178.113 114.719,178.039 114.323 C 177.934 113.755,177.916 113.773,177.941 114.422 M180.824 114.105 C 180.127 114.441,179.713 114.722,179.904 114.728 C 180.303 114.740,182.250 113.809,182.250 113.606 C 182.250 113.417,182.240 113.421,180.824 114.105 M182.647 114.328 C 182.254 114.404,181.933 114.585,181.933 114.731 C 181.933 115.058,183.146 114.767,183.383 114.383 C 183.478 114.230,183.512 114.124,183.458 114.148 C 183.404 114.171,183.039 114.253,182.647 114.328 M178.228 118.700 C 178.230 119.746,178.289 120.136,178.360 119.566 C 178.430 118.997,178.429 118.141,178.356 117.665 C 178.284 117.188,178.226 117.655,178.228 118.700 M175.655 117.787 C 175.950 117.875,176.248 118.331,176.318 118.799 C 176.434 119.570,176.443 119.561,176.416 118.703 C 176.394 117.999,176.223 117.738,175.753 117.691 C 175.294 117.645,175.267 117.672,175.655 117.787 M166.086 120.761 C 165.475 121.095,165.119 121.368,165.293 121.368 C 165.468 121.368,166.109 121.095,166.719 120.761 C 167.330 120.427,167.686 120.153,167.512 120.153 C 167.338 120.153,166.696 120.427,166.086 120.761 M176.647 122.662 C 176.647 123.796,176.704 124.259,176.774 123.693 C 176.845 123.126,176.845 122.199,176.774 121.632 C 176.704 121.066,176.647 121.529,176.647 122.662 M163.550 121.870 C 163.114 122.119,162.900 122.323,163.074 122.323 C 163.249 122.323,163.748 122.119,164.184 121.870 C 164.620 121.621,164.834 121.417,164.659 121.417 C 164.485 121.417,163.986 121.621,163.550 121.870 M178.545 123.138 C 178.547 124.184,178.606 124.574,178.677 124.004 C 178.747 123.434,178.746 122.578,178.673 122.102 C 178.601 121.626,178.543 122.092,178.545 123.138 M146.962 123.666 C 146.676 124.396,146.493 125.046,146.556 125.109 C 146.620 125.172,146.910 124.630,147.200 123.904 C 147.491 123.178,147.674 122.528,147.606 122.461 C 147.539 122.394,147.249 122.936,146.962 123.666 M126.869 126.466 C 126.869 127.250,126.931 127.571,127.007 127.179 C 127.082 126.787,127.082 126.145,127.007 125.753 C 126.931 125.361,126.869 125.681,126.869 126.466 M154.041 125.990 C 153.605 126.240,153.391 126.443,153.566 126.443 C 153.740 126.443,154.239 126.240,154.675 125.990 C 155.111 125.741,155.325 125.538,155.151 125.538 C 154.976 125.538,154.477 125.741,154.041 125.990 M176.957 127.100 C 176.957 128.059,177.017 128.451,177.089 127.971 C 177.162 127.492,177.162 126.708,177.089 126.228 C 177.017 125.749,176.957 126.141,176.957 127.100 M131.014 128.685 C 131.014 130.166,131.069 130.773,131.135 130.032 C 131.202 129.291,131.202 128.078,131.135 127.338 C 131.069 126.597,131.014 127.203,131.014 128.685 M139.548 128.368 C 139.548 129.152,139.609 129.473,139.685 129.081 C 139.760 128.689,139.760 128.047,139.685 127.655 C 139.609 127.262,139.548 127.583,139.548 128.368 M177.274 130.586 C 177.274 131.545,177.333 131.937,177.406 131.458 C 177.479 130.979,177.479 130.194,177.406 129.715 C 177.333 129.235,177.274 129.628,177.274 130.586 M140.729 131.406 C 139.691 131.831,139.681 131.848,140.571 131.676 C 141.094 131.575,141.657 131.360,141.823 131.198 C 142.202 130.827,142.093 130.847,140.729 131.406 M142.948 131.889 C 142.558 132.169,142.582 132.195,143.081 132.032 C 143.430 131.918,143.799 132.006,143.948 132.240 C 144.138 132.539,144.207 132.500,144.211 132.092 C 144.216 131.467,143.659 131.377,142.948 131.889 M135.680 132.092 C 135.767 133.021,136.249 133.539,136.269 132.726 C 136.282 132.246,136.149 131.854,135.975 131.854 C 135.800 131.854,135.668 131.961,135.680 132.092 M177.570 134.073 C 177.570 134.683,177.635 134.933,177.715 134.628 C 177.794 134.323,177.794 133.823,177.715 133.518 C 177.635 133.213,177.570 133.463,177.570 134.073 M149.852 135.258 C 150.773 135.322,152.200 135.321,153.022 135.256 C 153.844 135.191,153.090 135.139,151.347 135.140 C 149.604 135.140,148.931 135.194,149.852 135.258 M155.784 135.658 C 157.125 135.999,158.276 135.999,157.211 135.658 C 156.775 135.518,156.062 135.407,155.626 135.410 C 154.914 135.415,154.930 135.440,155.784 135.658 M140.653 135.882 C 141.048 135.958,141.618 135.955,141.921 135.875 C 142.224 135.796,141.902 135.734,141.204 135.738 C 140.507 135.741,140.259 135.806,140.653 135.882 M158.162 136.081 C 158.162 136.163,158.622 136.390,159.185 136.586 C 159.747 136.782,160.068 136.812,159.898 136.653 C 159.537 136.315,158.162 135.862,158.162 136.081 M177.887 138.193 C 177.887 138.803,177.952 139.053,178.031 138.748 C 178.111 138.443,178.111 137.944,178.031 137.639 C 177.952 137.334,177.887 137.583,177.887 138.193 M141.476 140.034 C 141.432 141.189,141.435 141.193,141.750 140.305 C 141.928 139.801,141.948 139.287,141.795 139.135 C 141.642 138.984,141.501 139.381,141.476 140.034 M117.184 140.333 C 116.001 140.771,115.086 141.182,115.151 141.247 C 115.323 141.420,118.947 140.134,119.310 139.771 C 119.686 139.395,119.808 139.362,117.184 140.333 M155.151 141.232 L 154.200 142.049 155.230 141.368 C 155.796 140.993,156.260 140.624,156.260 140.549 C 156.260 140.312,156.126 140.394,155.151 141.232 M136.291 146.974 C 136.204 149.973,136.244 152.315,136.379 152.180 C 136.514 152.044,136.585 149.590,136.537 146.727 L 136.448 141.521 136.291 146.974 M119.607 146.117 C 119.607 147.773,119.661 148.451,119.726 147.623 C 119.791 146.795,119.791 145.440,119.726 144.612 C 119.661 143.784,119.607 144.461,119.607 146.117 M178.221 145.008 C 178.223 145.880,178.285 146.199,178.357 145.717 C 178.430 145.235,178.428 144.522,178.353 144.132 C 178.278 143.742,178.218 144.136,178.221 145.008 M139.541 145.325 C 139.545 146.022,139.610 146.270,139.685 145.876 C 139.761 145.482,139.758 144.911,139.679 144.608 C 139.600 144.305,139.538 144.628,139.541 145.325 M147.464 146.154 C 146.384 146.846,146.034 147.310,146.989 146.786 C 147.716 146.386,148.855 145.505,148.653 145.499 C 148.566 145.496,148.031 145.791,147.464 146.154 M106.973 146.605 C 105.723 147.037,105.721 147.041,106.815 146.856 C 108.108 146.638,109.429 146.155,108.716 146.162 C 108.455 146.164,107.670 146.363,106.973 146.605 M143.464 146.830 C 143.201 147.815,143.218 148.653,143.502 148.651 C 143.633 148.650,143.762 148.080,143.788 147.383 C 143.841 145.954,143.744 145.787,143.464 146.830 M126.684 146.673 C 126.328 147.224,126.752 149.772,127.316 150.461 C 127.571 150.774,127.664 150.816,127.521 150.555 C 127.378 150.293,127.189 149.223,127.101 148.177 C 127.006 147.040,126.838 146.435,126.684 146.673 M168.067 148.871 C 168.372 148.951,168.871 148.951,169.176 148.871 C 169.481 148.792,169.231 148.726,168.621 148.726 C 168.011 148.726,167.761 148.792,168.067 148.871 M91.759 149.196 C 90.788 149.429,90.490 149.863,91.423 149.685 C 91.874 149.599,92.322 149.403,92.416 149.249 C 92.511 149.095,92.545 148.986,92.491 149.007 C 92.437 149.027,92.108 149.112,91.759 149.196 M193.265 149.194 C 193.657 149.269,194.299 149.269,194.691 149.194 C 195.083 149.118,194.762 149.056,193.978 149.056 C 193.193 149.056,192.872 149.118,193.265 149.194 M155.393 149.831 C 155.874 149.904,156.588 149.902,156.977 149.827 C 157.367 149.752,156.973 149.692,156.101 149.694 C 155.230 149.697,154.911 149.758,155.393 149.831 M150.638 150.148 C 151.120 150.221,151.833 150.219,152.223 150.144 C 152.613 150.069,152.219 150.009,151.347 150.011 C 150.475 150.014,150.156 150.075,150.638 150.148 M143.707 150.608 C 143.618 150.753,144.052 150.872,144.672 150.872 C 145.293 150.872,145.800 150.817,145.800 150.749 C 145.800 150.489,143.862 150.358,143.707 150.608 M146.989 150.461 C 147.381 150.537,148.023 150.537,148.415 150.461 C 148.807 150.386,148.487 150.324,147.702 150.324 C 146.918 150.324,146.597 150.386,146.989 150.461 M86.371 150.872 C 85.971 151.043,85.913 151.144,86.212 151.144 C 86.474 151.144,86.973 151.021,87.322 150.872 C 87.721 150.700,87.780 150.599,87.480 150.599 C 87.219 150.599,86.719 150.722,86.371 150.872 M169.031 150.790 C 170.215 150.851,172.069 150.851,173.151 150.789 C 174.233 150.727,173.265 150.677,170.998 150.678 C 168.732 150.678,167.847 150.729,169.031 150.790 M157.052 151.219 C 156.181 151.327,157.607 151.346,160.222 151.261 C 162.837 151.177,165.044 151.046,165.127 150.971 C 165.334 150.783,159.001 150.977,157.052 151.219 M177.476 151.049 C 177.989 151.146,178.473 151.434,178.553 151.689 C 178.646 151.984,178.681 151.948,178.650 151.591 C 178.615 151.199,178.291 151.006,177.573 150.951 C 176.592 150.875,176.588 150.880,177.476 151.049 M181.062 151.099 C 181.541 151.171,182.326 151.171,182.805 151.099 C 183.284 151.026,182.892 150.967,181.933 150.967 C 180.975 150.967,180.582 151.026,181.062 151.099 M84.152 151.506 C 83.753 151.677,83.694 151.778,83.994 151.778 C 84.255 151.778,84.754 151.655,85.103 151.506 C 85.503 151.334,85.561 151.233,85.261 151.233 C 85.000 151.233,84.501 151.356,84.152 151.506 M186.771 151.416 C 187.253 151.489,187.966 151.487,188.356 151.412 C 188.746 151.336,188.352 151.277,187.480 151.279 C 186.609 151.282,186.290 151.343,186.771 151.416 M150.238 151.823 L 149.128 152.056 150.140 152.098 C 150.696 152.121,151.239 151.997,151.347 151.823 C 151.455 151.648,151.499 151.524,151.445 151.547 C 151.391 151.570,150.848 151.694,150.238 151.823 M152.377 151.729 C 152.769 151.805,153.411 151.805,153.803 151.729 C 154.196 151.654,153.875 151.592,153.090 151.592 C 152.306 151.592,151.985 151.654,152.377 151.729 M191.371 151.738 C 192.117 151.805,193.258 151.804,193.907 151.736 C 194.556 151.668,193.946 151.613,192.552 151.614 C 191.157 151.615,190.626 151.671,191.371 151.738 M197.385 152.055 C 198.126 152.121,199.338 152.121,200.079 152.055 C 200.820 151.988,200.214 151.933,198.732 151.933 C 197.250 151.933,196.644 151.988,197.385 152.055 M218.067 154.200 C 218.658 154.810,219.213 155.309,219.300 155.309 C 219.387 155.309,218.975 154.810,218.384 154.200 C 217.792 153.590,217.237 153.090,217.150 153.090 C 217.063 153.090,217.475 153.590,218.067 154.200 M121.022 154.720 C 121.570 155.344,121.651 155.600,121.339 155.725 C 121.061 155.836,121.047 155.901,121.297 155.918 C 122.056 155.968,121.987 155.382,121.147 154.642 L 120.285 153.883 121.022 154.720 M134.073 155.309 C 133.463 155.643,133.078 155.922,133.217 155.930 C 133.553 155.947,135.341 155.018,135.341 154.825 C 135.341 154.618,135.322 154.625,134.073 155.309 M214.739 155.196 C 216.352 156.628,216.947 157.045,216.325 156.310 C 215.979 155.901,215.410 155.420,215.059 155.241 C 214.708 155.061,214.564 155.041,214.739 155.196 M136.382 157.052 C 136.385 157.924,136.446 158.243,136.519 157.761 C 136.592 157.279,136.590 156.566,136.515 156.176 C 136.439 155.786,136.380 156.181,136.382 157.052 M68.463 156.418 C 67.853 156.653,67.567 156.846,67.829 156.846 C 68.090 156.846,68.803 156.653,69.414 156.418 C 70.024 156.183,70.309 155.991,70.048 155.991 C 69.786 155.991,69.073 156.183,68.463 156.418 M80.190 156.735 C 79.754 156.984,79.540 157.188,79.715 157.188 C 79.889 157.188,80.388 156.984,80.824 156.735 C 81.260 156.486,81.474 156.282,81.300 156.282 C 81.125 156.282,80.626 156.486,80.190 156.735 M124.564 156.701 C 124.564 157.009,125.457 157.125,125.861 156.869 C 126.186 156.664,126.070 156.585,125.436 156.582 C 124.956 156.579,124.564 156.633,124.564 156.701 M108.241 160.233 C 107.445 160.617,107.419 160.660,108.082 160.500 C 108.518 160.395,109.010 160.183,109.176 160.028 C 109.587 159.644,109.361 159.693,108.241 160.233 M117.274 160.222 C 116.838 160.471,116.624 160.675,116.799 160.675 C 116.973 160.675,117.472 160.471,117.908 160.222 C 118.344 159.973,118.558 159.769,118.384 159.769 C 118.209 159.769,117.710 159.973,117.274 160.222 M54.675 160.380 C 54.276 160.552,54.217 160.653,54.517 160.653 C 54.778 160.653,55.277 160.530,55.626 160.380 C 56.026 160.209,56.084 160.108,55.784 160.108 C 55.523 160.108,55.024 160.231,54.675 160.380 M110.845 160.989 C 109.489 161.479,108.276 161.993,108.151 162.132 C 108.026 162.270,108.209 162.274,108.558 162.141 C 108.906 162.008,110.178 161.558,111.383 161.141 C 113.452 160.425,114.256 160.041,113.603 160.081 C 113.443 160.091,112.202 160.500,110.845 160.989 M138.986 160.884 C 138.637 161.151,138.035 161.309,137.648 161.237 C 137.261 161.165,137.020 161.228,137.112 161.377 C 137.401 161.845,138.410 161.674,139.188 161.025 C 140.068 160.292,139.908 160.181,138.986 160.884 M52.456 161.014 C 52.057 161.186,51.998 161.287,52.298 161.287 C 52.559 161.287,53.059 161.164,53.407 161.014 C 53.807 160.843,53.865 160.742,53.566 160.742 C 53.304 160.742,52.805 160.864,52.456 161.014 M105.943 161.024 C 104.882 161.451,105.080 161.667,106.181 161.284 C 106.704 161.101,107.132 160.895,107.132 160.825 C 107.132 160.637,106.746 160.701,105.943 161.024 M38.768 165.372 C 38.436 165.677,38.321 165.826,38.512 165.702 C 38.704 165.578,39.210 165.338,39.637 165.168 C 40.127 164.972,40.221 164.851,39.892 164.838 C 39.607 164.827,39.101 165.067,38.768 165.372 M93.819 165.610 C 93.384 165.859,93.170 166.063,93.344 166.063 C 93.518 166.063,94.017 165.859,94.453 165.610 C 94.889 165.361,95.103 165.157,94.929 165.157 C 94.754 165.157,94.255 165.361,93.819 165.610 M217.433 165.836 C 217.433 165.930,217.217 166.525,216.953 167.156 C 216.689 167.788,216.545 168.304,216.632 168.304 C 216.883 168.304,217.776 166.006,217.595 165.826 C 217.506 165.736,217.433 165.741,217.433 165.836 M182.636 168.304 C 182.633 168.740,182.745 169.453,182.884 169.889 C 183.225 170.954,183.225 169.804,182.884 168.463 C 182.667 167.609,182.642 167.593,182.636 168.304 M86.846 170.840 C 86.236 171.174,85.880 171.447,86.054 171.447 C 86.228 171.447,86.870 171.174,87.480 170.840 C 88.090 170.506,88.447 170.233,88.273 170.233 C 88.098 170.233,87.456 170.506,86.846 170.840 M94.136 170.998 C 93.700 171.248,93.487 171.451,93.661 171.451 C 93.835 171.451,94.334 171.248,94.770 170.998 C 95.206 170.749,95.420 170.545,95.246 170.545 C 95.071 170.545,94.572 170.749,94.136 170.998 M217.336 172.904 C 217.046 173.512,216.874 174.010,216.954 174.010 C 217.171 174.010,218.133 172.069,217.988 171.924 C 217.919 171.855,217.626 172.296,217.336 172.904 M81.141 175.619 C 80.008 175.948,79.590 176.146,80.213 176.060 C 81.527 175.879,84.381 175.023,83.677 175.022 C 83.415 175.022,82.274 175.291,81.141 175.619 M75.515 176.121 C 74.743 176.433,75.133 176.862,76.149 176.819 C 76.902 176.787,76.986 176.739,76.461 176.638 C 76.066 176.562,75.825 176.367,75.925 176.206 C 76.122 175.886,76.105 175.883,75.515 176.121 M210.759 177.100 L 209.667 178.288 210.856 177.196 C 211.510 176.595,212.044 176.061,212.044 176.008 C 212.044 175.766,211.776 175.994,210.759 177.100 M208.379 179.477 L 207.448 180.507 208.479 179.576 C 209.439 178.708,209.654 178.447,209.410 178.447 C 209.355 178.447,208.891 178.910,208.379 179.477 M209.018 182.964 L 207.765 184.311 209.113 183.058 C 209.853 182.369,210.460 181.762,210.460 181.711 C 210.460 181.471,210.184 181.711,209.018 182.964 M186.949 184.073 C 187.291 184.552,187.898 185.230,188.299 185.578 C 188.700 185.927,188.471 185.535,187.791 184.707 C 186.429 183.049,185.977 182.709,186.949 184.073 M190.358 184.193 C 190.568 184.533,193.043 185.827,193.194 185.676 C 193.252 185.618,192.598 185.196,191.741 184.739 C 190.883 184.282,190.261 184.036,190.358 184.193 M206.295 185.045 C 205.661 185.513,204.876 186.079,204.552 186.303 C 204.227 186.528,204.572 186.393,205.317 186.003 C 206.062 185.613,206.904 185.038,207.188 184.723 C 207.883 183.956,207.670 184.033,206.295 185.045 M199.128 184.971 C 198.562 185.219,198.098 185.495,198.098 185.584 C 198.098 185.749,200.322 184.887,200.591 184.617 C 200.861 184.348,200.174 184.514,199.128 184.971 " stroke="none" fill="#7ebce8" fill-rule="evenodd"></path></g></svg>